<svg width="85" height="85" viewBox="0 0 85 85" fill="none" xmlns="http://www.w3.org/2000/svg">
<g clip-path="url(#clip0_116_147)">
<path d="M119.6 89.5232C106.686 107.07 79.923 111.351 68.1558 111.299C64.2745 100.917 75.3289 98.8844 81.3413 99.1655C90.1013 102.559 110.497 94.1514 119.6 89.5232Z" fill="#F3BFEE"/>
<path fill-rule="evenodd" clip-rule="evenodd" d="M83.4309 99.3838C83.7375 99.1794 84.1517 99.2622 84.3561 99.5688C85.0951 100.677 85.8795 102.537 85.8289 104.558C85.7772 106.625 84.8498 108.809 82.2558 110.454C81.9447 110.651 81.5325 110.559 81.3351 110.248C81.1378 109.936 81.2301 109.524 81.5413 109.327C83.7474 107.928 84.4541 106.161 84.4951 104.525C84.5372 102.843 83.8728 101.249 83.2459 100.309C83.0415 100.002 83.1244 99.5881 83.4309 99.3838Z" fill="#EA92E2"/>
<path fill-rule="evenodd" clip-rule="evenodd" d="M89.0138 99.5155C89.2072 99.2019 89.6183 99.1044 89.9319 99.2978C90.771 99.8152 91.8359 100.859 92.3816 102.353C92.9383 103.878 92.9317 105.811 91.7011 108.02C91.5218 108.342 91.1155 108.457 90.7936 108.278C90.4718 108.099 90.3562 107.692 90.5355 107.37C91.588 105.481 91.5447 103.951 91.1283 102.811C90.7007 101.64 89.8559 100.819 89.2315 100.434C88.9179 100.24 88.8205 99.8291 89.0138 99.5155Z" fill="#EA92E2"/>
<path fill-rule="evenodd" clip-rule="evenodd" d="M95.3941 98.3372C95.5726 98.0149 95.9786 97.8983 96.3009 98.0768C97.1243 98.5328 98.2155 99.4428 98.822 100.731C99.4495 102.063 99.5282 103.745 98.3759 105.595C98.1811 105.907 97.7696 106.003 97.4569 105.808C97.1441 105.613 97.0485 105.202 97.2434 104.889C98.1536 103.428 98.0514 102.226 97.6149 101.299C97.1573 100.327 96.3012 99.6022 95.6545 99.244C95.3322 99.0655 95.2156 98.6595 95.3941 98.3372Z" fill="#EA92E2"/>
<path fill-rule="evenodd" clip-rule="evenodd" d="M101.498 96.6917C101.633 96.3488 102.02 96.18 102.363 96.3147C103.099 96.6038 104.09 97.2552 104.689 98.3085C105.312 99.4043 105.461 100.852 104.613 102.578C104.451 102.908 104.051 103.045 103.72 102.882C103.389 102.72 103.253 102.32 103.416 101.989C104.084 100.628 103.917 99.6502 103.529 98.9679C103.117 98.243 102.403 97.7639 101.875 97.5566C101.532 97.4219 101.363 97.0347 101.498 96.6917Z" fill="#EA92E2"/>
<path fill-rule="evenodd" clip-rule="evenodd" d="M108.606 94.1403C108.624 93.7723 108.936 93.4878 109.304 93.5049C109.891 93.5322 110.73 93.772 111.356 94.4364C112.013 95.1333 112.337 96.1914 112.047 97.642C111.974 98.0033 111.623 98.2376 111.262 98.1654C110.9 98.0931 110.666 97.7416 110.738 97.3803C110.962 96.2618 110.686 95.6714 110.385 95.3513C110.053 94.9988 109.575 94.8532 109.242 94.8377C108.874 94.8206 108.589 94.5084 108.606 94.1403Z" fill="#EA92E2"/>
<path fill-rule="evenodd" clip-rule="evenodd" d="M120.109 89.0917C120.309 89.3275 120.321 89.6697 120.137 89.9187C113.568 98.8455 103.505 104.363 93.659 107.644C83.8085 110.926 74.1032 111.992 68.153 111.966L67.6924 111.964L67.5311 111.532C66.5222 108.834 66.4539 106.593 67.1047 104.76C67.7554 102.928 69.0907 101.599 70.702 100.658C73.8932 98.7928 78.3111 98.3559 81.3727 98.4991L81.4812 98.5042L81.5825 98.5434C83.6224 99.3337 86.4111 99.4575 89.6577 99.0788C92.8893 98.7019 96.5023 97.8363 100.146 96.715C107.433 94.4724 114.772 91.2296 119.298 88.9285C119.573 88.7884 119.909 88.856 120.109 89.0917ZM81.2047 99.8272C78.262 99.7046 74.2101 100.153 71.3753 101.81C69.9566 102.639 68.8803 103.747 68.362 105.207C67.8744 106.58 67.8504 108.35 68.6261 110.631C74.4794 110.601 83.7912 109.525 93.2372 106.378C102.048 103.442 110.916 98.725 117.223 91.4314C112.704 93.5726 106.61 96.1219 100.538 97.9902C96.8505 99.1252 93.1531 100.014 89.8123 100.404C86.5355 100.786 83.5307 100.697 81.2047 99.8272Z" fill="#0F0C20"/>
<path d="M2.11881 28.0861C2.11881 28.0861 -2.81864 36.3768 23.3578 44.1845C23.3578 44.1845 41.7479 49.289 68.4085 43.0418C68.4085 43.0418 28.6052 39.1896 2.79463 28.17" fill="#0F0C20"/>
<path fill-rule="evenodd" clip-rule="evenodd" d="M68.4724 42.3777C68.4724 42.3777 68.4727 42.3778 68.4085 43.0418L68.4724 42.3777L72.5022 42.7677L68.5607 43.6913C55.1577 46.832 43.8288 47.1203 35.8438 46.6217C31.8513 46.3723 28.6942 45.9262 26.531 45.5413C25.4493 45.3488 24.616 45.1716 24.0508 45.0419C23.7683 44.977 23.5527 44.924 23.4066 44.8869C23.3336 44.8684 23.278 44.8538 23.24 44.8437C23.221 44.8386 23.2064 44.8347 23.1963 44.832L23.1845 44.8287L23.1811 44.8278L23.18 44.8275C23.18 44.8275 23.1794 44.8274 23.3578 44.1845L23.18 44.8275L23.1733 44.8256L23.1671 44.8238C10.0425 40.9091 4.53972 36.8281 2.36749 33.5781C1.26926 31.9351 1.02764 30.511 1.09039 29.4636C1.12144 28.9454 1.22626 28.5309 1.32744 28.2391C1.37803 28.0931 1.4278 27.9776 1.46722 27.8947C1.48694 27.8532 1.50411 27.8198 1.51755 27.7947C1.52428 27.7822 1.53007 27.7718 1.5348 27.7634L1.54106 27.7525L1.54356 27.7482L1.54464 27.7464C1.54464 27.7464 1.54561 27.7448 2.11881 28.0861C2.56686 28.353 2.66495 28.4107 2.68662 28.4229L3.05658 27.5564C15.8905 33.0357 32.2336 36.7432 45.3972 39.0814C51.9732 40.2494 57.7445 41.0737 61.8712 41.606C63.9345 41.8722 65.5863 42.0652 66.7216 42.1917C67.2893 42.2549 67.7278 42.3015 68.024 42.3323C68.1721 42.3476 68.2847 42.359 68.36 42.3666L68.4449 42.375L68.4724 42.3777ZM2.55107 28.7914C15.5249 34.3273 31.9794 38.0533 45.1638 40.3951C51.765 41.5676 57.5577 42.395 61.7006 42.9294C62.6537 43.0523 63.5197 43.1597 64.2881 43.2523C52.7621 45.5482 43.0037 45.7319 35.927 45.29C31.9894 45.0441 28.8828 44.6045 26.7647 44.2276C25.7057 44.0392 24.894 43.8664 24.3493 43.7414C24.077 43.6789 23.8714 43.6283 23.7351 43.5937C23.6669 43.5764 23.6161 43.563 23.5828 43.5542L23.5462 43.5444L23.5415 43.5431C10.4949 39.6508 5.37961 35.6835 3.47679 32.8367C2.53732 31.4311 2.37728 30.2946 2.42228 29.5434C2.44095 29.2319 2.49543 28.9784 2.55107 28.7914Z" fill="#0F0C20"/>
<path d="M44.172 125.785C44.172 125.785 50.491 130.75 51.5405 132.602C51.5405 132.602 48.921 138.106 52.1838 139.656C55.4466 141.207 59.003 130.698 59.003 130.698C59.003 130.698 56.8205 121.633 52.4267 118.449L44.172 125.785Z" fill="url(#paint0_linear_116_147)"/>
<path d="M52.1838 139.656C48.921 138.106 51.5405 132.602 51.5405 132.602L59.003 130.698C59.003 130.698 55.4466 141.207 52.1838 139.656Z" fill="#EEBAE9"/>
<path fill-rule="evenodd" clip-rule="evenodd" d="M47.9331 125.624C48.209 125.38 48.6306 125.405 48.8748 125.681L51.23 128.342C51.4742 128.618 51.4485 129.04 51.1727 129.284C50.8968 129.528 50.4751 129.502 50.2309 129.226L47.8757 126.566C47.6315 126.29 47.6572 125.868 47.9331 125.624Z" fill="#C0BFC0"/>
<path fill-rule="evenodd" clip-rule="evenodd" d="M51.6507 125.763C51.9455 125.542 52.3637 125.601 52.5847 125.896L54.7161 128.739C54.9371 129.034 54.8773 129.452 54.5825 129.673C54.2877 129.894 53.8695 129.835 53.6485 129.54L51.5171 126.697C51.2961 126.402 51.3559 125.984 51.6507 125.763Z" fill="#C0BFC0"/>
<path fill-rule="evenodd" clip-rule="evenodd" d="M52.47 121.887C52.7893 121.703 53.1972 121.813 53.381 122.133L55.1538 125.212C55.3376 125.532 55.2278 125.939 54.9085 126.123C54.5892 126.307 54.1813 126.197 53.9975 125.878L52.2246 122.798C52.0408 122.479 52.1507 122.071 52.47 121.887Z" fill="#C0BFC0"/>
<path fill-rule="evenodd" clip-rule="evenodd" d="M43.6475 125.373C43.8751 125.083 44.2945 125.033 44.5842 125.261L44.172 125.785L43.7599 126.31C43.4701 126.082 43.4198 125.663 43.6475 125.373ZM52.1429 132.889L52.2922 132.575L52.1209 132.273C51.8064 131.718 51.1492 131.001 50.4136 130.279C49.6589 129.539 48.7585 128.734 47.8979 127.994C47.0362 127.252 46.2083 126.569 45.5963 126.072C45.2902 125.824 45.0377 125.621 44.8615 125.481C44.7734 125.41 44.7043 125.356 44.6572 125.318L44.6032 125.276L44.5842 125.261C44.5842 125.261 44.5842 125.261 44.172 125.785L43.7599 126.31L43.7772 126.324L43.8293 126.365C43.8753 126.401 43.943 126.455 44.0297 126.524C44.2032 126.662 44.4526 126.862 44.7552 127.108C45.3608 127.6 46.1783 128.274 47.0275 129.005C47.8779 129.737 48.754 130.521 49.4793 131.232C50.0658 131.807 50.517 132.301 50.7847 132.665C50.7202 132.821 50.6401 133.023 50.5546 133.26C50.3514 133.824 50.1119 134.603 49.9796 135.444C49.8485 136.277 49.8146 137.22 50.0662 138.086C50.325 138.977 50.8865 139.778 51.8975 140.259C53.1055 140.833 54.24 140.213 55.0899 139.39C55.9583 138.549 56.7479 137.307 57.4057 136.072C58.0698 134.827 58.6264 133.537 59.0158 132.564C59.2109 132.076 59.3651 131.665 59.4707 131.375C59.5235 131.23 59.5642 131.115 59.5919 131.036C59.6057 130.997 59.6163 130.966 59.6236 130.945L59.6318 130.921L59.6341 130.915L59.6349 130.912C59.6349 130.912 59.6349 130.912 59.003 130.698L59.6349 130.912L59.6968 130.729L59.6517 130.542L59.003 130.698C59.6516 130.542 59.6517 130.542 59.6517 130.542L59.651 130.539L59.6496 130.533L59.6443 130.512C59.6397 130.493 59.633 130.466 59.6241 130.431C59.6063 130.361 59.5799 130.259 59.545 130.129C59.4751 129.869 59.3707 129.496 59.2317 129.038C58.9541 128.124 58.5371 126.871 57.9797 125.514C56.8799 122.838 55.178 119.619 52.8182 117.909C52.5199 117.693 52.1028 117.759 51.8866 118.058C51.6704 118.356 51.737 118.773 52.0353 118.989C54.0693 120.463 55.6556 123.369 56.7455 126.021C57.2829 127.329 57.6862 128.541 57.955 129.426C58.0893 129.868 58.1898 130.228 58.2564 130.475C58.2764 130.55 58.2933 130.614 58.3072 130.668C58.2834 130.735 58.2533 130.819 58.217 130.918C58.1154 131.197 57.9662 131.595 57.777 132.068C57.3976 133.016 56.8612 134.257 56.2283 135.445C55.5891 136.644 54.8779 137.738 54.1618 138.431C53.4272 139.143 52.8936 139.255 52.4702 139.053C51.8498 138.759 51.5152 138.291 51.3475 137.714C51.1726 137.112 51.1818 136.388 51.2977 135.651C51.4124 134.922 51.6239 134.229 51.8099 133.712C51.9023 133.456 51.9872 133.246 52.0483 133.103C52.0789 133.031 52.1034 132.975 52.1198 132.939C52.1281 132.921 52.1343 132.907 52.1382 132.899L52.1424 132.89L52.1429 132.889Z" fill="#021429"/>
<path d="M27.0277 73.6113C27.0277 73.6113 31.2139 77.4903 24.1736 90.2049C19.4584 98.7205 20.0661 135.988 62.7119 123.816C66.6345 122.696 69.6262 120.26 72.5893 118.062C72.5893 118.062 90.5888 98.3106 75.2182 71.6188C72.071 66.1537 63.6225 56.1956 56.0432 55.7076L42.691 67.6847L27.0277 73.6113Z" fill="white"/>
<path fill-rule="evenodd" clip-rule="evenodd" d="M31.2946 89.4503C31.6077 89.6446 31.7039 90.0559 31.5096 90.3689C31.0301 91.1415 30.3319 92.5855 29.8475 94.3434C29.3631 96.1015 29.1049 98.1294 29.4584 100.089C29.5238 100.452 29.2829 100.799 28.9203 100.864C28.5576 100.93 28.2107 100.689 28.1453 100.326C27.7452 98.1073 28.0436 95.8676 28.5612 93.989C29.0788 92.1103 29.8278 90.5484 30.376 89.6653C30.5703 89.3522 30.9816 89.256 31.2946 89.4503Z" fill="#E1E1E1"/>
<path fill-rule="evenodd" clip-rule="evenodd" d="M28.9869 106.67C29.3529 106.628 29.6836 106.891 29.7255 107.257C29.8288 108.16 30.1772 109.726 30.8882 111.405C31.5993 113.084 32.6551 114.835 34.1485 116.153C34.4248 116.396 34.4511 116.818 34.2073 117.094C33.9635 117.371 33.5419 117.397 33.2657 117.153C31.575 115.661 30.4193 113.72 29.6595 111.925C28.8997 110.131 28.518 108.441 28.3999 107.409C28.358 107.043 28.6208 106.712 28.9869 106.67Z" fill="#E1E1E1"/>
<path fill-rule="evenodd" clip-rule="evenodd" d="M35.9898 107.092C36.3558 107.051 36.6865 107.313 36.7284 107.679C36.8317 108.583 37.1801 110.148 37.8911 111.828C38.6022 113.507 39.658 115.257 41.1514 116.575C41.4276 116.819 41.454 117.241 41.2102 117.517C40.9664 117.793 40.5448 117.819 40.2685 117.576C38.5779 116.084 37.4222 114.142 36.6624 112.348C35.9026 110.553 35.5209 108.864 35.4028 107.831C35.3609 107.465 35.6237 107.134 35.9898 107.092Z" fill="#E1E1E1"/>
<path fill-rule="evenodd" clip-rule="evenodd" d="M35.3388 97.8848C35.6963 97.9742 35.9137 98.3363 35.8244 98.6938C35.6039 99.5759 35.3805 101.164 35.4567 102.986C35.5329 104.808 35.9069 106.818 36.8426 108.576C37.0157 108.901 36.8923 109.305 36.5671 109.478C36.2418 109.652 35.8378 109.528 35.6647 109.203C34.6054 107.212 34.205 104.989 34.1236 103.042C34.0421 101.095 34.2779 99.3787 34.5299 98.3704C34.6192 98.0129 34.9814 97.7955 35.3388 97.8848Z" fill="#E1E1E1"/>
<path fill-rule="evenodd" clip-rule="evenodd" d="M47.036 96.6607C47.4042 96.6751 47.6909 96.9853 47.6764 97.3535C47.6407 98.2621 47.7462 99.8625 48.1926 101.63C48.6391 103.399 49.4154 105.29 50.6903 106.82C50.9261 107.103 50.8878 107.524 50.6047 107.76C50.3217 107.995 49.901 107.957 49.6652 107.674C48.2219 105.942 47.376 103.846 46.8989 101.957C46.4218 100.068 46.3023 98.3396 46.3432 97.3011C46.3577 96.9329 46.6679 96.6462 47.036 96.6607Z" fill="#E1E1E1"/>
<path fill-rule="evenodd" clip-rule="evenodd" d="M51.0823 91.7503C51.4504 91.7648 51.7372 92.075 51.7227 92.4431C51.687 93.3517 51.7924 94.9521 52.2388 96.7201C52.6853 98.4882 53.4617 100.379 54.7365 101.91C54.9724 102.193 54.9341 102.613 54.651 102.849C54.3679 103.085 53.9472 103.047 53.7114 102.764C52.2682 101.031 51.4223 98.9361 50.9452 97.0468C50.4681 95.1574 50.3486 93.4293 50.3894 92.3907C50.4039 92.0225 50.7141 91.7358 51.0823 91.7503Z" fill="#E1E1E1"/>
<path fill-rule="evenodd" clip-rule="evenodd" d="M63.8317 101.436C64.1573 101.264 64.5611 101.388 64.7335 101.713C65.1591 102.517 66.0545 103.848 67.3288 105.152C68.6032 106.456 70.2246 107.701 72.0957 108.384C72.4419 108.51 72.6201 108.893 72.4939 109.239C72.3676 109.585 71.9846 109.764 71.6385 109.637C69.5202 108.865 67.7361 107.478 66.3744 106.085C65.0125 104.691 64.041 103.257 63.5545 102.338C63.382 102.012 63.5061 101.609 63.8317 101.436Z" fill="#E1E1E1"/>
<path fill-rule="evenodd" clip-rule="evenodd" d="M66.8932 87.947C67.261 87.9262 67.5761 88.2076 67.5969 88.5754C67.6482 89.4833 67.9063 91.0663 68.5198 92.7834C69.1333 94.5008 70.087 96.3089 71.5024 97.7102C71.7642 97.9694 71.7663 98.3918 71.5071 98.6537C71.2479 98.9155 70.8254 98.9176 70.5636 98.6584C68.9613 97.072 67.9189 95.0673 67.2633 93.2324C66.6076 91.3972 66.3234 89.6885 66.2647 88.6508C66.2439 88.2829 66.5253 87.9678 66.8932 87.947Z" fill="#E1E1E1"/>
<path fill-rule="evenodd" clip-rule="evenodd" d="M69.5749 74.9036C69.3294 75.1783 69.353 75.6 69.6277 75.8456C70.3056 76.4515 71.3827 77.64 72.3431 79.19C73.3037 80.7402 74.1232 82.6129 74.3369 84.5932C74.3764 84.9595 74.7054 85.2244 75.0717 85.1849C75.438 85.1454 75.703 84.8164 75.6634 84.45C75.4216 82.2083 74.5037 80.1436 73.4773 78.4873C72.4509 76.8307 71.2918 75.5435 70.5169 74.8508C70.2422 74.6052 69.8205 74.6289 69.5749 74.9036Z" fill="#E1E1E1"/>
<path fill-rule="evenodd" clip-rule="evenodd" d="M75.3257 91.996C74.9863 92.1394 74.8275 92.5308 74.9709 92.8702C75.3248 93.7077 75.7907 95.2425 75.9965 97.0543C76.2024 98.8663 76.143 100.91 75.4898 102.791C75.369 103.139 75.5532 103.519 75.9013 103.64C76.2494 103.761 76.6295 103.577 76.7503 103.229C77.4898 101.099 77.5422 98.8398 77.3223 96.9037C77.1023 94.9674 76.6045 93.3082 76.1999 92.3508C76.0565 92.0114 75.6651 91.8525 75.3257 91.996Z" fill="#E1E1E1"/>
<path fill-rule="evenodd" clip-rule="evenodd" d="M57.8719 104.895C58.2203 104.775 58.6 104.96 58.7199 105.309C59.016 106.168 59.6944 107.622 60.7513 109.108C61.8083 110.594 63.2174 112.075 64.9602 113.039C65.2826 113.217 65.3994 113.623 65.221 113.945C65.0427 114.268 64.6367 114.385 64.3143 114.206C62.3413 113.115 60.7935 111.469 59.664 109.881C58.5345 108.293 57.7967 106.726 57.4583 105.743C57.3384 105.395 57.5235 105.015 57.8719 104.895Z" fill="#E1E1E1"/>
<path fill-rule="evenodd" clip-rule="evenodd" d="M42.581 107.99C42.9261 107.861 43.3105 108.036 43.4395 108.381C43.7581 109.233 44.4745 110.668 45.5701 112.125C46.6659 113.583 48.1134 115.027 49.881 115.944C50.208 116.114 50.3354 116.517 50.1656 116.844C49.9958 117.171 49.5931 117.298 49.2661 117.129C47.265 116.09 45.6744 114.485 44.5036 112.927C43.3327 111.369 42.554 109.822 42.1898 108.849C42.0607 108.503 42.2359 108.119 42.581 107.99Z" fill="#E1E1E1"/>
<path fill-rule="evenodd" clip-rule="evenodd" d="M42.5736 87.6397C42.8875 87.8325 42.9857 88.2434 42.7928 88.5573C42.3169 89.3321 41.6254 90.7793 41.1492 92.5394C40.6729 94.2998 40.4241 96.3288 40.7866 98.2872C40.8537 98.6495 40.6143 98.9976 40.252 99.0647C39.8898 99.1317 39.5417 98.8924 39.4746 98.5301C39.0642 96.313 39.3523 94.0719 39.8612 92.191C40.3701 90.3099 41.1119 88.7445 41.6559 87.8589C41.8488 87.545 42.2597 87.4468 42.5736 87.6397Z" fill="#E1E1E1"/>
<path fill-rule="evenodd" clip-rule="evenodd" d="M54.2894 75.3306C54.5869 75.5478 54.652 75.9652 54.4348 76.2628C53.8986 76.9971 53.094 78.3846 52.479 80.1013C51.864 81.8181 51.4543 83.8208 51.6596 85.8019C51.6976 86.1684 51.4313 86.4963 51.0648 86.5343C50.6983 86.5722 50.3704 86.3059 50.3325 85.9394C50.1 83.6967 50.5658 81.4857 51.2229 79.6513C51.8801 77.8167 52.7443 76.3155 53.3572 75.476C53.5744 75.1784 53.9918 75.1133 54.2894 75.3306Z" fill="#E1E1E1"/>
<path fill-rule="evenodd" clip-rule="evenodd" d="M60.7783 71.1851C61.1386 71.2622 61.3682 71.6167 61.2911 71.977C61.1009 72.8662 60.9317 74.4612 61.07 76.2794C61.2083 78.0978 61.6506 80.0935 62.6456 81.8189C62.8297 82.138 62.7202 82.546 62.401 82.7301C62.0819 82.9142 61.6739 82.8047 61.4898 82.4855C60.3633 80.5323 59.8873 78.3235 59.7395 76.3805C59.5918 74.4374 59.7689 72.7143 59.9863 71.6979C60.0634 71.3376 60.418 71.108 60.7783 71.1851Z" fill="#E1E1E1"/>
<path fill-rule="evenodd" clip-rule="evenodd" d="M27.0669 85.3668C27.3909 85.5423 27.5113 85.9471 27.3358 86.2711L27.3283 86.2851L27.3049 86.3287C27.2842 86.3674 27.2536 86.4248 27.2143 86.499C27.1358 86.6476 27.0228 86.8633 26.8857 87.1307C26.6113 87.666 26.2411 88.4065 25.8576 89.2283C25.0778 90.8993 24.2868 92.8161 24.0819 94.0433C24.0212 94.4067 23.6774 94.6521 23.314 94.5915C22.9506 94.5308 22.7052 94.187 22.7658 93.8236C23.0049 92.3915 23.8765 90.3183 24.6485 88.6641C25.0408 87.8234 25.4187 87.0675 25.6984 86.522C25.8383 86.249 25.9539 86.0283 26.0347 85.8755C26.0751 85.799 26.1068 85.7396 26.1286 85.699L26.1535 85.6525L26.1623 85.6362C26.1623 85.6362 26.1625 85.6358 26.7492 85.9534L26.1623 85.6362C26.3378 85.3122 26.7429 85.1914 27.0669 85.3668Z" fill="#021429"/>
<path fill-rule="evenodd" clip-rule="evenodd" d="M23.0845 97.0366V97.0366L23.0838 97.0388L23.0806 97.0494C23.0777 97.0592 23.0732 97.0744 23.0673 97.0948C23.0554 97.1356 23.0377 97.1973 23.0154 97.2781C22.9708 97.4397 22.9077 97.6775 22.835 97.978C22.6896 98.5794 22.5067 99.4288 22.3577 100.417C22.0575 102.408 21.9052 104.899 22.4287 107.052C22.5158 107.41 22.2961 107.771 21.9381 107.858C21.5801 107.945 21.2193 107.725 21.1322 107.367C20.548 104.965 20.7287 102.272 21.0384 100.218C21.1943 99.1835 21.3856 98.2951 21.5381 97.6644C21.6144 97.3488 21.6812 97.097 21.7293 96.923C21.7533 96.8359 21.7727 96.7683 21.7862 96.7217C21.793 96.6985 21.7983 96.6805 21.802 96.668L21.8064 96.6534L21.8077 96.6492L21.8082 96.6475C21.8082 96.6475 21.8083 96.6471 22.4464 96.8419L21.8082 96.6475C21.9158 96.295 22.2887 96.0962 22.6411 96.2038C22.9935 96.3113 23.1919 96.6842 23.0845 97.0366Z" fill="#021429"/>
<path fill-rule="evenodd" clip-rule="evenodd" d="M23.805 110.636V110.636L23.8057 110.638L23.809 110.649C23.812 110.659 23.8168 110.674 23.8233 110.694C23.8362 110.735 23.856 110.796 23.8826 110.875C23.9358 111.034 24.0162 111.267 24.1237 111.556C24.3389 112.137 24.6614 112.943 25.0895 113.846C25.9523 115.666 27.2168 117.817 28.8533 119.311C29.1255 119.559 29.1447 119.981 28.8963 120.253C28.6479 120.526 28.2259 120.545 27.9538 120.296C26.1277 118.629 24.7739 116.295 23.8839 114.418C23.4357 113.473 23.0984 112.629 22.8727 112.02C22.7598 111.716 22.6746 111.47 22.6173 111.299C22.5886 111.213 22.5669 111.146 22.5522 111.1C22.5448 111.077 22.5392 111.059 22.5353 111.046L22.5308 111.032L22.5295 111.028L22.529 111.026C22.529 111.026 22.5289 111.026 23.167 110.831L22.529 111.026C22.4214 110.674 22.6198 110.3 22.9722 110.193C23.3245 110.085 23.6974 110.284 23.805 110.636Z" fill="#021429"/>
<path fill-rule="evenodd" clip-rule="evenodd" d="M32.118 118.059C32.4864 118.052 32.7909 118.345 32.7981 118.713L32.1311 118.726C32.7981 118.713 32.7981 118.713 32.7981 118.713L32.798 118.712L32.798 118.71L32.798 118.708C32.798 118.708 32.7983 118.715 32.7989 118.724C32.8001 118.741 32.8026 118.771 32.8079 118.813C32.8185 118.897 32.8398 119.027 32.8824 119.194C32.9676 119.526 33.1379 120.001 33.478 120.535C34.1506 121.591 35.5271 122.939 38.3794 123.842C38.7306 123.953 38.9252 124.328 38.8141 124.679C38.7029 125.031 38.328 125.225 37.9767 125.114C34.8575 124.127 33.2105 122.599 32.3525 121.252C31.9273 120.584 31.7055 119.976 31.5899 119.525C31.5322 119.3 31.501 119.114 31.484 118.979C31.4756 118.912 31.4707 118.857 31.4679 118.817C31.4664 118.797 31.4655 118.78 31.465 118.767L31.4643 118.75L31.4642 118.744L31.4641 118.742L31.4641 118.741C31.4641 118.741 31.4641 118.74 32.1311 118.726L31.4641 118.74C31.4568 118.371 31.7496 118.067 32.118 118.059Z" fill="#021429"/>
<path fill-rule="evenodd" clip-rule="evenodd" d="M42.6751 119.263C43.0347 119.182 43.3913 119.409 43.4717 119.768L42.8207 119.914C43.4717 119.768 43.4717 119.768 43.4717 119.768L43.4713 119.766L43.471 119.765L43.4706 119.763C43.4706 119.763 43.4723 119.77 43.4746 119.778C43.4791 119.795 43.4877 119.824 43.5012 119.864C43.5282 119.944 43.5751 120.068 43.65 120.222C43.7996 120.531 44.061 120.963 44.5006 121.418C45.3701 122.319 46.9873 123.366 49.9622 123.683C50.3286 123.722 50.5939 124.051 50.5549 124.417C50.5159 124.784 50.1872 125.049 49.8208 125.01C46.5675 124.663 44.6494 123.494 43.5404 122.345C42.9908 121.775 42.6523 121.223 42.4493 120.804C42.3479 120.595 42.2803 120.419 42.2369 120.29C42.2152 120.226 42.1995 120.173 42.1887 120.134C42.1833 120.115 42.1791 120.099 42.176 120.086L42.172 120.07L42.1706 120.064L42.1701 120.062L42.1698 120.06C42.1698 120.06 42.1696 120.059 42.8207 119.914L42.1696 120.059C42.0892 119.7 42.3155 119.343 42.6751 119.263Z" fill="#021429"/>
<path fill-rule="evenodd" clip-rule="evenodd" d="M51.8572 118.045C52.2209 117.986 52.5635 118.233 52.6225 118.597L51.9639 118.703C52.6225 118.597 52.6225 118.597 52.6225 118.597L52.6222 118.595L52.6219 118.593L52.6216 118.591C52.6216 118.591 52.6229 118.598 52.6247 118.607C52.6283 118.623 52.6351 118.653 52.6462 118.694C52.6685 118.775 52.7079 118.901 52.7735 119.06C52.9046 119.377 53.14 119.824 53.5519 120.304C54.3664 121.255 55.9188 122.396 58.8697 122.889C59.2331 122.95 59.4786 123.294 59.4179 123.657C59.3572 124.02 59.0134 124.266 58.65 124.205C55.4229 123.666 53.5774 122.385 52.5385 121.172C52.0236 120.571 51.7183 120 51.5405 119.57C51.4517 119.355 51.3946 119.175 51.3589 119.045C51.341 118.979 51.3285 118.926 51.32 118.886C51.3158 118.866 51.3126 118.85 51.3102 118.837L51.3072 118.821L51.3062 118.815L51.3057 118.812L51.3056 118.811C51.3056 118.811 51.3054 118.81 51.9639 118.703L51.3054 118.81C51.2464 118.446 51.4935 118.104 51.8572 118.045Z" fill="#021429"/>
<path fill-rule="evenodd" clip-rule="evenodd" d="M76.9625 110.942C77.3207 111.028 77.541 111.389 77.4545 111.747C77.3587 112.144 77.1103 112.639 76.8238 113.132C76.5267 113.644 76.15 114.219 75.7489 114.795C74.9468 115.947 74.025 117.135 73.3942 117.886C73.1574 118.169 72.7366 118.205 72.4543 117.969C72.1721 117.732 72.1352 117.311 72.3721 117.029C72.9774 116.307 73.8749 115.151 74.654 114.032C75.0435 113.473 75.3979 112.931 75.6699 112.462C75.9525 111.975 76.1111 111.626 76.1575 111.434C76.2439 111.076 76.6044 110.856 76.9625 110.942Z" fill="#021429"/>
<path d="M25.9744 40.8478C25.9744 40.8478 3.02054 49.0749 1.71725 56.0793C0.413964 63.0836 24.6122 85.0518 59.9984 58.0264C59.9984 58.0264 65.5635 42.0677 53.7428 35.8239C53.7428 35.8239 56.0346 36.0626 48.4149 34.4658C40.7952 32.8691 41.4727 34.9531 41.4727 34.9531C41.4727 34.9531 37.8369 34.502 32.1453 36.6189C26.4536 38.7358 19.5512 30.885 19.5512 30.885C19.5512 30.885 16.9871 34.5212 25.9744 40.8478Z" fill="white"/>
<path fill-rule="evenodd" clip-rule="evenodd" d="M19.5512 30.885C19.025 30.5174 19.0236 30.5092 19.0236 30.5092L19.0225 30.5107L19.0203 30.5138L19.0153 30.5213C19.0116 30.5267 19.0073 30.5331 19.0026 30.5405C18.993 30.5552 18.974 30.5762 18.9608 30.5987C18.9344 30.6435 18.8905 30.6942 18.855 30.7697C18.7839 30.9209 18.7022 31.1332 18.6406 31.4042C18.5164 31.9505 18.4786 32.7163 18.7509 33.6761C19.2505 35.4366 20.7733 37.7874 24.5781 40.6563C23.9563 40.893 23.1138 41.2204 22.117 41.6246C19.935 42.5092 17.0085 43.7635 14.0379 45.2395C11.0719 46.7133 8.03902 48.4194 5.65643 50.2113C4.46502 51.1073 3.41915 52.0374 2.62316 52.9846C1.83098 53.9273 1.25348 54.9257 1.06153 55.9573C0.861373 57.033 1.16055 58.2967 1.7988 59.5796C2.44388 60.8763 3.4684 62.2613 4.82753 63.6121C7.54744 66.3156 11.6546 68.9299 16.9136 70.4548C27.461 73.5131 42.5726 72.1746 60.4034 58.5566L60.5625 58.4351L60.6285 58.2461L59.9984 58.0264C60.6283 58.2461 60.6285 58.2461 60.6285 58.2461L60.629 58.2444L60.6301 58.2413L60.6338 58.2306C60.6369 58.2216 60.6412 58.2087 60.6468 58.1922C60.6579 58.1591 60.6737 58.1111 60.6936 58.0489C60.7333 57.9247 60.7892 57.744 60.8557 57.513C60.9886 57.0513 61.1638 56.3879 61.3361 55.5734C61.68 53.9469 62.0149 51.7046 61.9706 49.2546C61.8851 44.5306 60.3782 38.9264 54.6956 35.591C54.6445 35.4461 54.5564 35.3558 54.5256 35.3257C54.4621 35.2637 54.3989 35.2256 54.3671 35.2075C54.2984 35.1684 54.225 35.1391 54.1672 35.1177C53.73 34.9565 52.3379 34.6063 48.5519 33.8129C46.6238 33.4089 45.1958 33.2322 44.1351 33.2015C43.0825 33.1711 42.3471 33.2826 41.8333 33.4935C41.3879 33.6763 41.0932 33.9426 40.9332 34.2514C40.9001 34.2504 40.8657 34.2495 40.8301 34.2487C40.3762 34.239 39.7183 34.2495 38.8813 34.328C37.2068 34.4849 34.8173 34.9134 31.9129 35.9936C29.404 36.9268 26.5127 35.6827 24.0954 33.9984C22.9131 33.1746 21.8992 32.2835 21.1796 31.5962C20.8204 31.2532 20.377 31.0653 20.1836 30.8616C20.087 30.7597 20.0131 30.6797 19.964 30.6259C19.9395 30.599 19.9211 30.5786 19.9092 30.5653L19.8962 30.5507L19.8931 30.5472M41.3907 35.6152L41.3881 35.6149C41.3854 35.6146 41.3813 35.6142 41.376 35.6136C41.3727 35.6133 41.3689 35.6129 41.3646 35.6124C41.342 35.6102 41.3058 35.6069 41.2562 35.6032C41.1569 35.5958 41.0044 35.5871 40.8015 35.5827C40.3959 35.574 39.7891 35.583 39.0058 35.6564C37.4394 35.8032 35.1652 36.2076 32.378 37.2442C29.1952 38.428 25.7895 36.8051 23.3326 35.0932C22.0779 34.2189 21.0104 33.2797 20.258 32.5611C20.1221 32.4313 19.9963 32.3085 19.8813 32.1944C19.8727 32.4931 19.908 32.8659 20.0345 33.3118C20.4576 34.8025 21.9244 37.1809 26.3586 40.3024L27.4097 41.0422L26.1997 41.4759L25.9744 40.8478C26.1995 41.4759 26.1997 41.4759 26.1997 41.4759L26.1843 41.4814L26.1364 41.4988C26.0938 41.5143 26.0301 41.5375 25.9468 41.5681C25.7803 41.6294 25.535 41.7205 25.222 41.839C24.596 42.0761 23.6991 42.4229 22.6184 42.8611C20.4558 43.7379 17.5623 44.9782 14.6316 46.4344C11.6962 47.893 8.74624 49.557 6.45842 51.2776C5.31463 52.1379 4.35341 52.9996 3.64464 53.843C2.93207 54.691 2.50717 55.4819 2.3733 56.2014C2.24763 56.8767 2.41955 57.8318 2.99342 58.9853C3.56045 60.1251 4.48904 61.3945 5.76813 62.6658C8.32465 65.2068 12.2343 67.7088 17.2852 69.1733C27.3262 72.0847 41.9468 70.9111 59.4295 57.6213C59.4651 57.5092 59.5146 57.3484 59.5734 57.144C59.6987 56.7086 59.8659 56.0765 60.0307 55.2973C60.3608 53.7364 60.6785 51.5988 60.6365 49.2787C60.5525 44.6353 59.0407 39.3767 53.4314 36.4138L52.9395 36.154C52.1675 35.9599 50.7594 35.6388 48.2782 35.1188C46.3965 34.7245 45.0518 34.5629 44.0965 34.5352C43.133 34.5074 42.6091 34.6174 42.3399 34.7279C42.2267 34.7743 42.1677 34.8163 42.1387 34.8433L42.4316 35.7443L41.3907 35.6152ZM42.1131 34.8744C42.1131 34.8744 42.114 34.8712 42.1179 34.8659C42.1155 34.8719 42.1131 34.8744 42.1131 34.8744ZM53.9641 35.1694L53.9629 35.1694C53.968 35.1691 53.9688 35.1692 53.9641 35.1694Z" fill="#0F0C20"/>
<path d="M2.40675 56.1384C3.53857 50.1474 13.8418 51.9041 13.6851 57.9991C13.6635 58.8374 13.5413 59.6818 13.3127 60.5152L11.5731 66.8551C5.25553 63.4854 1.91722 58.7296 2.40675 56.1384Z" fill="#FFE9FD"/>
<path d="M2.38688 56.276C2.68467 53.8757 6.14527 54.5008 6.4008 56.906C6.57445 58.5405 6.41266 60.2099 5.90513 61.8087L5.66629 62.5612C3.96718 60.8633 2.00732 58.2852 2.38688 56.276Z" fill="#F3BFEE"/>
<path d="M36.0784 48.5218C37.2005 48.661 38.2446 47.6903 38.4104 46.3536C38.5762 45.017 37.801 43.8206 36.6789 43.6814C35.5568 43.5422 34.5127 44.5129 34.3469 45.8495C34.1811 47.1861 34.9563 48.3826 36.0784 48.5218Z" fill="#021429"/>
<path d="M26.7074 47.3592C27.8295 47.4984 28.8736 46.5277 29.0394 45.191C29.2053 43.8544 28.43 42.658 27.3079 42.5188C26.1858 42.3796 25.1418 43.3503 24.9759 44.6869C24.8101 46.0235 25.5853 47.22 26.7074 47.3592Z" fill="#021429"/>
<path d="M40.2729 51.494C40.1671 52.3471 38.6052 52.8555 36.7845 52.6296C34.9637 52.4037 33.5735 51.5291 33.6793 50.676C33.7851 49.823 35.3469 49.3146 37.1677 49.5405C38.9885 49.7663 40.3787 50.641 40.2729 51.494Z" fill="#FFE9FD"/>
<path d="M59.1201 123.881C59.1201 123.881 64.6269 129.107 67.0342 131.307C67.0342 131.307 67.502 139.914 70.9216 139.297C74.3412 138.679 73.1493 127.866 73.1493 127.866C73.1493 127.866 72.1329 120.281 67.2598 114.806L59.1201 123.881Z" fill="url(#paint1_linear_116_147)"/>
<path d="M70.9216 139.297C67.502 139.914 67.0342 131.307 67.0342 131.307L73.1493 127.866C73.1493 127.866 74.3412 138.679 70.9216 139.297Z" fill="#EEBAE9"/>
<path fill-rule="evenodd" clip-rule="evenodd" d="M62.1873 123.192C62.4461 122.93 62.8685 122.927 63.1308 123.186L65.6607 125.681C65.923 125.94 65.9259 126.362 65.6672 126.625C65.4085 126.887 64.9861 126.89 64.7237 126.631L62.1938 124.136C61.9315 123.877 61.9286 123.455 62.1873 123.192Z" fill="#C0BFC0"/>
<path fill-rule="evenodd" clip-rule="evenodd" d="M66.3256 123.451C66.6098 123.217 67.0303 123.257 67.2648 123.541L69.5264 126.282C69.7609 126.566 69.7206 126.987 69.4364 127.221C69.1522 127.456 68.7317 127.415 68.4972 127.131L66.2356 124.39C66.0011 124.106 66.0414 123.686 66.3256 123.451Z" fill="#C0BFC0"/>
<path fill-rule="evenodd" clip-rule="evenodd" d="M67.4356 119.322C67.7634 119.154 68.1655 119.283 68.3338 119.611L69.957 122.772C70.1253 123.1 69.996 123.502 69.6682 123.67C69.3405 123.839 68.9383 123.709 68.77 123.382L67.1469 120.221C66.9786 119.893 67.1079 119.491 67.4356 119.322Z" fill="#C0BFC0"/>
<path fill-rule="evenodd" clip-rule="evenodd" d="M66.8162 114.307C67.0914 114.062 67.5131 114.087 67.7581 114.362C70.2764 117.192 71.7853 120.549 72.6645 123.178C73.1053 124.496 73.3908 125.639 73.5664 126.455C73.6543 126.864 73.7148 127.191 73.7536 127.417C73.773 127.531 73.7869 127.619 73.7962 127.68C73.8008 127.71 73.8042 127.734 73.8066 127.75L73.8093 127.769L73.81 127.775L73.8104 127.777C73.8104 127.777 73.8106 127.778 73.1493 127.866C73.8124 127.793 73.8123 127.794 73.8123 127.794L73.8133 127.803L73.816 127.828C73.8183 127.849 73.8215 127.881 73.8256 127.922C73.8337 128.004 73.8451 128.123 73.8583 128.274C73.8847 128.577 73.9185 129.008 73.948 129.528C74.0071 130.564 74.0503 131.96 73.9841 133.381C73.9184 134.792 73.7432 136.274 73.3447 137.462C72.9595 138.61 72.278 139.729 71.04 139.953C69.8411 140.17 68.943 139.54 68.3322 138.702C67.7338 137.88 67.3292 136.766 67.0501 135.703C66.7675 134.626 66.5977 133.537 66.4984 132.723C66.4485 132.314 66.4161 131.972 66.396 131.731C66.3927 131.691 66.3897 131.653 66.387 131.619C65.1682 130.5 63.3056 128.752 61.7167 127.254C60.8774 126.463 60.1135 125.741 59.5594 125.217C59.2823 124.954 59.0577 124.741 58.9023 124.594L58.661 124.365C58.661 124.365 58.6607 124.365 59.0847 123.918L58.661 124.365C58.3937 124.112 58.3824 123.689 58.636 123.422C58.8896 123.155 59.3119 123.144 59.5791 123.397L59.1582 123.841C59.5791 123.397 59.5791 123.397 59.5791 123.397L59.8202 123.626C59.9754 123.773 60.1998 123.985 60.4766 124.247C61.0302 124.772 61.7935 125.493 62.6319 126.283C64.31 127.865 66.2849 129.718 67.4841 130.814L67.6854 130.998L67.7002 131.27L67.7005 131.275L67.7014 131.291C67.7023 131.306 67.7038 131.328 67.7058 131.358C67.7098 131.418 67.7163 131.507 67.7257 131.62C67.7446 131.847 67.7754 132.172 67.8228 132.561C67.9181 133.342 68.0789 134.366 68.3407 135.364C68.606 136.375 68.9595 137.297 69.4106 137.916C69.8492 138.518 70.2919 138.732 70.8029 138.64C71.2747 138.555 71.7265 138.091 72.0797 137.038C72.4195 136.025 72.5875 134.688 72.6513 133.319C72.7146 131.96 72.6735 130.613 72.6159 129.603C72.5872 129.099 72.5545 128.681 72.5291 128.39C72.5164 128.245 72.5055 128.131 72.4979 128.054C72.4941 128.016 72.491 127.986 72.489 127.967L72.487 127.948L72.4857 127.939C72.4839 127.926 72.481 127.906 72.477 127.88C72.469 127.827 72.4563 127.747 72.4384 127.642C72.4026 127.433 72.3456 127.124 72.262 126.736C72.0948 125.959 71.8216 124.864 71.3991 123.601C70.5519 121.068 69.1161 117.895 66.7613 115.249C66.5164 114.974 66.541 114.552 66.8162 114.307ZM73.1493 127.866L73.8123 127.794L73.8115 127.785L73.8104 127.777L73.1493 127.866Z" fill="#021429"/>
<path d="M24.0145 33.9364C24.0145 33.9364 42.6749 7.80449 52.0272 4.18739C61.3795 0.570299 68.906 16.9219 82.514 19.2616C82.514 19.2616 83.0564 23.6241 75.3948 23.2404C67.7332 22.8567 61.3145 16.8487 60.5683 19.3619C59.8222 21.8752 58.2255 29.4946 60.878 36.1211C60.878 36.1211 72.9889 39.1154 80.4046 36.6848C87.8206 34.252 69.3926 51.5095 34.8189 39.6199C0.245266 27.7303 2.17009 27.9691 2.17009 27.9691C2.17009 27.9691 20.3257 33.9131 24.0145 33.9364Z" fill="#180C50"/>
<path fill-rule="evenodd" clip-rule="evenodd" d="M58.5362 5.29038C56.4161 4.2833 54.3875 3.98976 52.2677 4.80963C50.0659 5.6612 47.2293 7.88617 44.1679 10.8416C41.1275 13.7768 37.9353 17.3623 35.0256 20.846C32.1174 24.3279 29.4995 27.6985 27.6082 30.1992C26.6628 31.4494 25.8994 32.4815 25.3726 33.2007C25.1092 33.5603 24.9051 33.8417 24.7669 34.0329C24.734 34.0783 24.7049 34.1187 24.6796 34.1538C24.6517 34.1925 24.6285 34.2249 24.61 34.2506L24.5703 34.3059L24.5574 34.3239C24.5574 34.3239 24.5574 34.3241 24.0145 33.9364L24.5574 34.3239L24.3561 34.6058L24.0101 34.6036C23.3528 34.5994 22.3247 34.4312 21.0864 34.1629C24.9059 35.4947 29.5032 37.0864 35.0357 38.989C52.1887 44.8878 65.2928 43.5431 73.157 41.0624C77.1064 39.8166 79.6989 38.296 80.8288 37.2906C80.8507 37.2711 80.8719 37.252 80.8923 37.2332C80.8064 37.2573 80.7131 37.2856 80.6124 37.3187C76.7603 38.5813 71.7568 38.424 67.7857 37.9774C65.7866 37.7526 64.023 37.4512 62.7589 37.2059C62.1266 37.0832 61.6184 36.9745 61.2674 36.8961C61.0918 36.857 60.9555 36.8254 60.8625 36.8035C60.816 36.7925 60.7804 36.784 60.7561 36.7781L60.7282 36.7713L60.7186 36.769C60.7186 36.769 60.7178 36.7687 60.878 36.1211L60.7186 36.769L60.3856 36.6866L60.2584 36.369C57.5205 29.529 59.1699 21.7276 59.9286 19.1721C60.0789 18.6659 60.415 18.2959 60.9204 18.1502C61.3584 18.024 61.8438 18.0915 62.2907 18.2082C63.1341 18.4285 64.2242 18.9365 65.4249 19.496C65.506 19.5338 65.5876 19.5718 65.6696 19.6099C68.3341 20.8499 71.744 22.3896 75.4281 22.5741C79.145 22.7603 80.6678 21.788 81.3035 20.9818C81.6313 20.566 81.7669 20.1432 81.8213 19.8249C81.8221 19.8202 81.8229 19.8156 81.8236 19.8111C75.5156 18.5346 70.5033 14.3694 66.1327 10.7375C65.8354 10.4905 65.541 10.2459 65.2495 10.0049C62.8654 8.03399 60.6834 6.31027 58.5362 5.29038ZM82.514 19.2616L83.1759 19.1793L83.1148 18.688L82.6269 18.6041C76.4122 17.5356 71.4894 13.4494 66.9283 9.66343C66.6508 9.4331 66.3747 9.20388 66.0996 8.97652C63.732 7.01919 61.4284 5.18699 59.1087 4.08515C56.7621 2.97051 54.3427 2.57651 51.7864 3.56519C49.312 4.52216 46.3089 6.9201 43.2412 9.88169C40.1524 12.8636 36.926 16.4893 34.0015 19.9907C31.0755 23.4939 28.4438 26.8824 26.544 29.3944C25.5939 30.6507 24.8264 31.6883 24.2962 32.4123C24.031 32.7744 23.8252 33.058 23.6854 33.2513L23.6843 33.2529C22.7691 33.1772 21.181 32.8453 19.2082 32.3474C17.0006 31.7902 14.3955 31.048 11.8992 30.3047C9.40409 29.5616 7.02328 28.8191 5.26588 28.2623C4.38731 27.9839 3.66484 27.752 3.16217 27.5897C2.91085 27.5086 2.71448 27.4449 2.58104 27.4015L2.37824 27.3354C2.37824 27.3354 2.37766 27.3351 2.17009 27.9691L2.37824 27.3354L2.31612 27.315L2.25204 27.3071L2.17009 27.9691C2.25222 27.3071 2.24946 27.3067 2.24946 27.3067L2.24672 27.3064L2.24077 27.3058C2.23661 27.3053 2.23194 27.3048 2.22681 27.3044C2.21684 27.3035 2.20374 27.3026 2.18838 27.3021C2.16771 27.3014 2.10293 27.2995 2.02341 27.3157C1.98383 27.3237 1.90613 27.3429 1.81987 27.3926C1.73032 27.4442 1.5939 27.552 1.5237 27.7454C1.45202 27.9429 1.48923 28.1193 1.53238 28.2263C1.57262 28.326 1.62759 28.3934 1.65695 28.4263C1.74719 28.5274 1.85932 28.5886 1.89497 28.608L1.89919 28.6103C1.95962 28.6435 2.03671 28.6811 2.1335 28.725C2.51745 28.8994 3.37789 29.2485 5.29691 29.9613C9.14564 31.3909 17.3145 34.3058 34.6018 40.2508C52.0224 46.2416 65.4193 44.9023 73.5584 42.3349C77.6108 41.0566 80.3956 39.4621 81.7157 38.2874C82.0451 37.9943 82.316 37.6989 82.4867 37.4136C82.6264 37.18 82.8473 36.6967 82.5546 36.2401C82.2752 35.804 81.759 35.7697 81.4688 35.7808C81.116 35.7944 80.6863 35.8902 80.1967 36.0508C76.633 37.2189 71.873 37.0944 67.9348 36.6515C65.9791 36.4315 64.2515 36.1363 63.013 35.8961C62.3941 35.776 61.8982 35.6698 61.558 35.5939C61.4897 35.5787 61.4277 35.5647 61.3723 35.552C58.9813 29.2139 60.4864 21.9817 61.2077 19.5518C61.2402 19.4425 61.2657 19.4374 61.2839 19.4337C61.286 19.4333 61.2881 19.4329 61.29 19.4323C61.3758 19.4076 61.5741 19.4001 61.9536 19.4992C62.675 19.6876 63.6624 20.1473 64.9398 20.742L65.1067 20.8197C67.7535 22.0513 71.3837 23.7075 75.3613 23.9067C79.306 24.1043 81.3427 23.0871 82.3513 21.808C82.8455 21.1811 83.0532 20.5373 83.1365 20.0496C83.1782 19.8059 83.1892 19.5992 83.1894 19.449C83.1894 19.3738 83.1868 19.3121 83.1838 19.2666C83.1823 19.2437 83.1807 19.2249 83.1793 19.2102C83.1786 19.2029 83.1779 19.1967 83.1773 19.1915L83.1766 19.1845L83.1762 19.1817L83.1761 19.1804C83.1761 19.1804 83.1761 19.1792 82.514 19.2616ZM2.52648 27.4319C2.52648 27.4319 2.53178 27.4346 2.53991 27.4399C2.53014 27.4345 2.52648 27.4319 2.52648 27.4319ZM81.6342 37.1193C81.6342 37.1193 81.627 37.119 81.6161 37.1158C81.6293 37.1172 81.6342 37.1193 81.6342 37.1193ZM81.37 36.6765C81.3731 36.6647 81.3769 36.6578 81.3769 36.6578C81.3769 36.6578 81.3761 36.6633 81.37 36.6765Z" fill="#0F0C20"/>
<path d="M52.2086 28.3225C59.6323 30.6379 55.7254 38.935 55.7254 38.935L43.6312 36.7405C43.6312 36.7405 44.7849 26.0072 52.2086 28.3225Z" fill="#EEBAE9"/>
<path fill-rule="evenodd" clip-rule="evenodd" d="M47.3974 28.0867C48.7276 27.3009 50.3895 27.0564 52.4075 27.6857C54.3967 28.3061 55.6859 29.3501 56.4587 30.6085C57.2238 31.8542 57.4442 33.2468 57.4182 34.5109C57.3921 35.7752 57.119 36.949 56.8578 37.7985C56.7266 38.2255 56.5967 38.5758 56.4987 38.8213C56.4497 38.9441 56.4086 39.041 56.3791 39.1085C56.3644 39.1422 56.3525 39.1686 56.3441 39.1872L56.334 39.2092L56.3309 39.2158L56.3299 39.2179C56.3299 39.2179 56.329 39.2192 55.7254 38.935L56.3293 39.2193L56.1109 39.683L42.9019 37.2862L42.9682 36.6693L43.6312 36.7405C42.9679 36.6692 42.9682 36.6693 42.9682 36.6693L42.9684 36.6678L42.9686 36.6655L42.9695 36.6578L42.9726 36.631C42.9753 36.6081 42.9793 36.5754 42.9848 36.5336C42.9958 36.45 43.0127 36.3298 43.0368 36.1789C43.0848 35.8773 43.1617 35.4518 43.2778 34.9495C43.5088 33.9494 43.9001 32.6234 44.5415 31.3611C45.1801 30.1043 46.094 28.8568 47.3974 28.0867ZM44.3859 36.1994L55.3157 38.1827C55.3938 37.9784 55.4876 37.715 55.5825 37.4064C55.8218 36.6279 56.0615 35.5828 56.0842 34.4833C56.1068 33.3837 55.912 32.2679 55.3217 31.3067C54.7392 30.3582 53.7329 29.4968 52.0102 28.9595C50.3163 28.4312 49.0502 28.6601 48.0761 29.2355C47.0754 29.8267 46.3088 30.8285 45.7311 31.9655C45.1561 33.0971 44.795 34.3097 44.5778 35.2498C44.4924 35.6193 44.43 35.9433 44.3859 36.1994Z" fill="#021429"/>
<path d="M47.6651 32.4184L45.4987 31.0707C45.0709 31.9389 44.1896 33.7377 44.0865 33.9869C43.9578 34.2985 43.0554 36.8371 42.9181 37.4312C47.7343 40.7739 54.3292 40.558 56.0884 39.8268L56.5076 37.2552L56.5594 34.0816L54.7195 34.6915L52.9471 33.2469L50.852 34.0452L49.5963 32.0175L47.6651 32.4184Z" fill="url(#paint2_linear_116_147)"/>
<path fill-rule="evenodd" clip-rule="evenodd" d="M47.3422 28.2419C48.6875 27.3758 50.3698 27.0775 52.4019 27.7247C54.4017 28.3615 55.6801 29.4685 56.4311 30.8034C57.1723 32.1211 57.3666 33.6009 57.3188 34.9468C57.2709 36.2951 56.9787 37.5529 56.7032 38.4658C56.5649 38.9243 56.4292 39.3009 56.3274 39.5646C56.2765 39.6965 56.2339 39.8005 56.2035 39.8727C56.1883 39.9087 56.1761 39.9369 56.1675 39.9567L56.1572 39.9799L56.1542 39.9867L56.1532 39.9889C56.1532 39.9889 56.1526 39.9902 55.5621 39.7232L56.1526 39.9902C56.0008 40.326 55.6055 40.475 55.2698 40.3232C54.9343 40.1714 54.7852 39.7764 54.9367 39.4408V39.4408L54.9381 39.4376L54.9449 39.4222C54.9512 39.4078 54.961 39.3852 54.9738 39.3548C54.9994 39.2941 55.0369 39.2025 55.0827 39.0839C55.1744 38.8465 55.2986 38.5019 55.4258 38.0804C55.6815 37.2331 55.9429 36.0948 55.9853 34.8995C56.0279 33.7018 55.8492 32.4904 55.2682 31.4576C54.6969 30.4422 53.7039 29.5396 51.997 28.9961C50.3225 28.4628 49.0566 28.7251 48.0645 29.3638C47.0407 30.0229 46.2452 31.1253 45.6397 32.3699C45.038 33.6068 44.6519 34.9262 44.4163 35.946C44.2989 36.4538 44.2201 36.8822 44.1707 37.1822C44.146 37.332 44.1288 37.4496 44.1178 37.5286C44.1123 37.568 44.1084 37.5979 44.106 37.6173L44.1033 37.6384L44.1028 37.643C44.0601 38.0088 43.7288 38.2715 43.363 38.2289C42.997 38.1863 42.7348 37.8551 42.7774 37.4891L43.4401 37.5662C42.7774 37.4891 42.7774 37.4891 42.7774 37.4891L42.7779 37.4853L42.7788 37.4773L42.7824 37.449C42.7854 37.4247 42.79 37.3899 42.7962 37.3453C42.8086 37.256 42.8275 37.1273 42.8541 36.9655C42.9073 36.6422 42.9915 36.1854 43.1162 35.6456C43.3647 34.5705 43.7785 33.1458 44.4399 31.7862C45.0976 30.4342 46.0286 29.0876 47.3422 28.2419Z" fill="#0F0C20"/>
<path d="M19.4787 31.0153C19.4787 31.0153 26.1122 38.6974 31.2892 38.0717L26.0377 42.4115C17.3894 35.6286 19.4787 31.0153 19.4787 31.0153Z" fill="white"/>
<path fill-rule="evenodd" clip-rule="evenodd" d="M19.4787 31.0153C18.9311 30.6343 18.9301 30.6357 18.9301 30.6357L18.9291 30.6372L18.9268 30.6405L18.9217 30.6481C18.918 30.6537 18.9138 30.6601 18.9091 30.6675C18.8996 30.6824 18.8883 30.7009 18.8754 30.7232C18.8497 30.7679 18.818 30.8275 18.784 30.9021C18.7159 31.0515 18.6387 31.2604 18.5813 31.5281C18.4657 32.0674 18.4351 32.8252 18.6995 33.789C19.2254 35.7059 20.9017 38.3867 25.2815 41.8218L26.1049 40.7719C21.8364 37.4241 20.4055 34.9641 19.9863 33.436C19.8525 32.9485 19.8201 32.551 19.8327 32.2419C19.9515 32.3474 20.0819 32.4621 20.2229 32.5846C20.9734 33.2367 22.0289 34.1144 23.2483 35.016C25.6529 36.7939 28.8174 38.7586 31.5644 39.1436L31.7496 37.8222C29.3687 37.4885 26.444 35.7194 24.0415 33.9431C22.8574 33.0676 21.8298 32.2132 21.0981 31.5774C20.7325 31.2598 20.4415 30.9973 20.2426 30.8149C20.1431 30.7238 20.0667 30.6526 20.0156 30.6046C19.99 30.5807 19.9707 30.5625 19.9581 30.5504L19.944 30.5371L19.3765 29.9939L18.9311 30.6343L19.4787 31.0153Z" fill="#0F0C20"/>
<path d="M52.5849 101.505C38.9998 98.3699 28.724 89.4874 25.2842 85.438L29.4642 82.6949C36.0477 90.6369 50.7561 96.5412 57.2874 98.5006L52.5849 101.505Z" fill="#85624E"/>
<path fill-rule="evenodd" clip-rule="evenodd" d="M29.5969 81.8097L29.9777 82.2691C33.1818 86.1344 38.4074 89.5461 43.6986 92.247C48.9764 94.941 54.2486 96.8924 57.479 97.8616L58.8724 98.2796L52.7078 102.218L52.4348 102.155C38.676 98.9799 28.283 89.9989 24.7756 85.8699L24.2868 85.2945L29.5969 81.8097ZM26.2923 85.5743C30.065 89.7305 39.7917 97.7849 52.4628 100.791L55.723 98.7083C52.4174 97.6268 47.7576 95.8169 43.092 93.4354C37.9501 90.8108 32.7352 87.4589 29.338 83.5756L26.2923 85.5743Z" fill="#0F0C20"/>
<path d="M65.8682 114.859C55.6251 119.636 53.5157 109.093 53.7414 103.225L72.1471 95.9607C83.1043 104.086 78.6722 108.888 65.8682 114.859Z" fill="#85624E"/>
<path fill-rule="evenodd" clip-rule="evenodd" d="M72.2468 95.2041L72.5444 95.4248C75.3128 97.4778 77.1803 99.3702 78.1739 101.181C79.1877 103.028 79.2919 104.798 78.526 106.492C77.7824 108.138 76.2523 109.636 74.1717 111.078C72.0806 112.527 69.3629 113.965 66.1501 115.463C63.5012 116.699 61.2879 116.986 59.4586 116.529C57.6203 116.069 56.275 114.886 55.3176 113.394C53.4289 110.452 52.9599 106.185 53.0748 103.199L53.0915 102.764L72.2468 95.2041ZM54.396 103.683C54.3467 106.517 54.8523 110.199 56.4404 112.673C57.2624 113.954 58.351 114.877 59.782 115.234C61.222 115.594 63.1136 115.407 65.5862 114.254C68.7754 112.767 71.4132 111.366 73.4118 109.981C75.421 108.589 76.7148 107.26 77.3101 105.943C77.883 104.675 77.841 103.348 77.0042 101.823C76.1789 100.319 74.5832 98.6356 72.0455 96.718L54.396 103.683Z" fill="#0F0C20"/>
<path d="M68.8586 92.5016L53.9556 99.6926C52.6539 100.321 52.2978 102 53.3551 102.985C56.3862 105.81 61.6771 109.34 66.8497 106.862C72.3109 104.245 72.5813 98.1258 71.7603 93.8415C71.5086 92.5278 70.0633 91.9203 68.8586 92.5016Z" fill="#85624E"/>
<path fill-rule="evenodd" clip-rule="evenodd" d="M71.1052 93.9671C70.948 93.1469 70.0185 92.6828 69.1486 93.1025L54.2456 100.294C53.3094 100.745 53.1413 101.874 53.8101 102.497C55.2932 103.879 57.3034 105.408 59.5442 106.292C61.7741 107.171 64.1887 107.397 66.5615 106.26C69.0868 105.05 70.4106 103.043 71.0169 100.803C71.6291 98.5413 71.5043 96.0502 71.1052 93.9671ZM68.5688 91.9008C70.1083 91.158 72.0693 91.9089 72.4156 93.716C72.8374 95.9172 72.988 98.6279 72.3049 101.151C71.616 103.696 70.0739 106.057 67.138 107.464C64.3382 108.805 61.5212 108.505 59.0547 107.533C56.5992 106.565 54.4483 104.916 52.9004 103.473C51.4546 102.126 51.9986 99.8962 53.6657 99.0918L68.5688 91.9008Z" fill="#0F0C20"/>
<path d="M69.9462 105.834C70.5375 107.14 70.1144 108.608 69.0011 109.112C67.8878 109.616 66.5059 108.965 65.9146 107.658C65.3233 106.351 65.7464 104.883 66.8597 104.38C67.973 103.876 69.3548 104.527 69.9462 105.834Z" fill="#FFC682"/>
<path fill-rule="evenodd" clip-rule="evenodd" d="M68.451 107.896C68.7175 107.776 69.1041 107.209 68.7306 106.384C68.357 105.558 67.6763 105.475 67.4097 105.595C67.1432 105.716 66.7567 106.282 67.1302 107.108C67.5037 107.933 68.1845 108.017 68.451 107.896ZM69.0011 109.112C70.1144 108.608 70.5375 107.14 69.9462 105.834C69.3548 104.527 67.973 103.876 66.8597 104.38C65.7464 104.883 65.3233 106.351 65.9146 107.658C66.5059 108.965 67.8878 109.616 69.0011 109.112Z" fill="#0F0C20"/>
<path d="M54.2107 92.3517C54.2107 92.3517 68.659 109.458 72.8949 102.818C72.8949 102.818 77.2382 97.9539 62.4745 84.114L54.2121 92.3533L54.2107 92.3517Z" fill="url(#paint3_linear_116_147)"/>
<path d="M71.6048 94.8792C74.881 100.595 72.8949 102.818 72.8949 102.818C71.0937 105.641 67.4506 104.174 63.8564 101.552L71.6048 94.8792Z" fill="#EEBAE9"/>
<path fill-rule="evenodd" clip-rule="evenodd" d="M62.214 83.4628C62.466 83.1939 62.8881 83.1802 63.157 83.4321C70.4643 90.279 73.1336 94.9903 73.9255 98.0723C74.3239 99.6233 74.2474 100.765 74.041 101.548C73.9384 101.937 73.8055 102.23 73.6905 102.435C73.633 102.537 73.5803 102.616 73.5383 102.674C73.5215 102.697 73.5064 102.717 73.4935 102.734C72.8822 103.673 72.062 104.228 71.0988 104.431C70.1492 104.631 69.121 104.476 68.0963 104.125C66.0551 103.426 63.8081 101.87 61.7543 100.162C59.6867 98.4423 57.7578 96.521 56.3492 95.0341C55.6439 94.2897 55.067 93.6519 54.6658 93.1996C54.4652 92.9734 54.3084 92.7935 54.2015 92.6697C54.148 92.6078 54.107 92.5599 54.0791 92.5273L54.0473 92.49L54.039 92.4802L54.0361 92.4768C54.0361 92.4768 54.0358 92.4764 54.5455 92.046L54.0361 92.4768C53.7992 92.1963 53.8332 91.7766 54.1126 91.5384C54.392 91.3001 54.8114 91.3324 55.051 91.6106L55.0524 91.6122C55.0546 91.6148 55.0569 91.6174 55.0591 91.6201L55.0644 91.6263L55.0938 91.6609C55.12 91.6916 55.1594 91.7375 55.2111 91.7973C55.3146 91.9171 55.4675 92.0926 55.664 92.3142C56.0571 92.7574 56.6242 93.3843 57.3178 94.1165C58.7071 95.5829 60.5958 97.463 62.6074 99.1358C64.6326 100.82 66.7262 102.246 68.5286 102.863C69.4256 103.17 70.195 103.258 70.824 103.125C71.4277 102.998 71.9588 102.658 72.391 101.981L72.42 101.936L72.4483 101.904C72.4502 101.902 72.4533 101.898 72.4575 101.892C72.4712 101.873 72.4963 101.836 72.5277 101.78C72.5903 101.669 72.6787 101.481 72.7508 101.208C72.8939 100.665 72.9804 99.7558 72.6332 98.4043C71.9336 95.6815 69.4767 91.1821 62.2447 84.4058C61.9758 84.1539 61.9621 83.7317 62.214 83.4628Z" fill="#021429"/>
<path fill-rule="evenodd" clip-rule="evenodd" d="M57.1884 91.0186C57.4676 90.7782 57.8888 90.8096 58.1292 91.0888L60.4482 93.7813C60.6886 94.0605 60.6572 94.4817 60.378 94.7222C60.0988 94.9626 59.6776 94.9312 59.4371 94.652L57.1182 91.9595C56.8778 91.6803 56.9092 91.2591 57.1884 91.0186Z" fill="#C0BFC0"/>
<path fill-rule="evenodd" clip-rule="evenodd" d="M60.3687 90.2493C60.6479 90.0088 61.0691 90.0403 61.3095 90.3194L63.6285 93.0119C63.8689 93.2911 63.8375 93.7124 63.5583 93.9528C63.2791 94.1933 62.8579 94.1619 62.6174 93.8827L60.2985 91.1902C60.0581 90.911 60.0895 90.4897 60.3687 90.2493Z" fill="#C0BFC0"/>
<path fill-rule="evenodd" clip-rule="evenodd" d="M61.6864 86.7696C61.9655 86.5292 62.3868 86.5606 62.6272 86.8398L64.9461 89.5323C65.1866 89.8115 65.1552 90.2327 64.876 90.4731C64.5968 90.7136 64.1756 90.6822 63.9351 90.403L61.6162 87.7105C61.3758 87.4313 61.4072 87.0101 61.6864 86.7696Z" fill="#C0BFC0"/>
<path fill-rule="evenodd" clip-rule="evenodd" d="M65.3647 92.1297C65.6439 91.8892 66.0652 91.9206 66.3056 92.1998L68.6245 94.8923C68.865 95.1715 68.8336 95.5928 68.5544 95.8332C68.2752 96.0737 67.854 96.0423 67.6135 95.7631L65.2946 93.0706C65.0542 92.7914 65.0856 92.3701 65.3647 92.1297Z" fill="#C0BFC0"/>
<path fill-rule="evenodd" clip-rule="evenodd" d="M61.9183 95.0979C62.1975 94.8575 62.6188 94.8889 62.8592 95.1681L65.1781 97.8606C65.4186 98.1398 65.3872 98.561 65.108 98.8015C64.8288 99.0419 64.4076 99.0105 64.1671 98.7313L61.8482 96.0388C61.6078 95.7596 61.6392 95.3384 61.9183 95.0979Z" fill="#C0BFC0"/>
<path d="M32.972 76.3464C32.972 76.3464 79.4967 86.9576 81.0475 130.859C81.0475 130.859 88.0262 129.402 86.8631 107.764C86.8631 107.764 86.6692 101.106 92.8725 99.2333C92.8725 99.2333 84.6774 100.965 82.2155 90.1074C78.84 75.2205 70.2732 61.6651 58.8359 59.3765C58.8359 59.3765 57.5913 71.769 32.972 76.3464Z" fill="url(#paint4_linear_116_147)"/>
<path fill-rule="evenodd" clip-rule="evenodd" d="M58.2459 58.5779L58.9672 58.7222C64.9074 59.9109 70.0383 64.0102 74.0903 69.6273C78.1458 75.2493 81.1629 82.4467 82.8665 89.9598C84.0543 95.1983 86.5833 97.2862 88.7112 98.1208C89.7961 98.5463 90.8131 98.6603 91.5599 98.6671C91.9325 98.6704 92.2347 98.6471 92.4402 98.6236C92.5428 98.6119 92.621 98.6002 92.6713 98.5919C92.6964 98.5877 92.7146 98.5844 92.7253 98.5824L92.7349 98.5805C92.7349 98.5805 92.7355 98.5804 92.7378 98.5916L93.0656 99.8719C90.2111 100.734 88.8388 102.679 88.1649 104.439C87.8258 105.325 87.6664 106.16 87.5924 106.774C87.5555 107.08 87.5401 107.329 87.5339 107.499C87.5308 107.583 87.53 107.648 87.5299 107.69C87.5298 107.711 87.53 107.726 87.5301 107.735L87.5302 107.739C88.1133 118.609 86.6602 124.516 84.9834 127.734C84.1416 129.349 83.2426 130.288 82.5191 130.828C82.1584 131.097 81.8456 131.264 81.6117 131.366C81.495 131.416 81.3983 131.451 81.3257 131.474C81.2894 131.485 81.2591 131.494 81.2353 131.5C81.2235 131.503 81.2132 131.505 81.2047 131.507L81.1931 131.51L81.1883 131.511L81.1861 131.511C81.1861 131.511 81.1838 131.512 81.0475 130.859L81.1841 131.512L80.4091 131.674L80.3811 130.882C79.6153 109.205 67.7598 95.7501 56.0503 87.6891C50.1922 83.6564 44.3782 80.9806 40.0274 79.3133C37.8529 78.48 36.0463 77.8995 34.7859 77.528C34.1557 77.3422 33.6623 77.2088 33.3278 77.122C33.1606 77.0787 33.0332 77.047 32.9483 77.0264C32.9058 77.0161 32.874 77.0085 32.8532 77.0036L32.8302 76.9982L32.825 76.997L32.824 76.9968L29.6805 76.2798L32.8504 75.6905C45.0549 73.4213 51.3778 69.2327 54.6464 65.6923C56.2828 63.9198 57.1659 62.2971 57.6391 61.133C57.8759 60.5504 58.0106 60.0814 58.0854 59.7646C58.1228 59.6061 58.1452 59.4858 58.158 59.4083C58.1644 59.3696 58.1683 59.3416 58.1705 59.325C58.1716 59.3167 58.1722 59.3112 58.1725 59.3086L58.1727 59.307L58.2459 58.5779ZM81.6693 129.796C81.6863 129.784 81.7036 129.771 81.7211 129.758C82.2697 129.349 83.0427 128.571 83.8002 127.117C85.3214 124.198 86.7757 118.561 86.1972 107.8L86.1968 107.791L86.1966 107.783L86.8631 107.764C86.1962 107.783 86.1966 107.783 86.1966 107.783L86.1965 107.78L86.1963 107.773L86.196 107.754C86.1957 107.738 86.1956 107.716 86.1956 107.687C86.1957 107.631 86.1968 107.551 86.2005 107.45C86.2079 107.248 86.2258 106.962 86.2677 106.614C86.3512 105.922 86.5311 104.975 86.9189 103.962C87.4569 102.557 88.4006 101.017 90.0335 99.8655C89.471 99.7692 88.8582 99.6117 88.224 99.363C85.6388 98.349 82.8393 95.8739 81.5652 90.2549C79.8933 82.8811 76.9393 75.8575 73.0082 70.4079C69.2301 65.1705 64.5887 61.4375 59.3588 60.1748C59.2664 60.545 59.1163 61.0421 58.8751 61.6355C58.3456 62.9381 57.3789 64.6996 55.6267 66.5974C52.3839 70.1099 46.4924 74.0461 35.8162 76.4447C37.0449 76.822 38.6434 77.354 40.5048 78.0674C44.9258 79.7615 50.8399 82.4824 56.8068 86.5901C68.5602 94.6812 80.5477 108.18 81.6693 129.796Z" fill="#021429"/>
<path d="M33.7976 110.235C26.7455 97.4128 30.8592 84.7242 33.7976 79.9827L51.6284 75.3748C42.0118 89.7997 45.3509 102.622 48.2225 107.23L33.7976 110.235Z" fill="#EEBC97"/>
<path fill-rule="evenodd" clip-rule="evenodd" d="M53.1523 74.2919L52.1837 75.7448C42.7204 89.9397 46.048 102.479 48.7889 106.877L49.2943 107.688L33.451 110.989L33.2132 110.556C26.0126 97.4643 30.2054 84.5131 33.2307 79.6313L33.3717 79.4038L53.1523 74.2919ZM34.2273 80.5608C31.4204 85.277 27.6777 97.2771 34.1485 109.48L47.1869 106.764C44.4398 101.583 41.9879 89.7558 50.1515 76.4455L34.2273 80.5608Z" fill="#0F0C20"/>
<path d="M62.5369 54.0019C47.7734 68.9466 31.3692 72.2471 24.8975 72.1393C19.1125 74.1295 23.728 83.0677 24.2136 86.0404C40.9081 95.4617 74.4335 72.2805 73.4106 64.1734C72.5923 57.6878 65.8205 54.69 62.5369 54.0019Z" fill="url(#paint5_linear_116_147)"/>
<path fill-rule="evenodd" clip-rule="evenodd" d="M62.3177 53.2744L62.6736 53.3489C64.3955 53.7098 67.0024 54.6663 69.2972 56.379C71.5987 58.0966 73.6339 60.6141 74.0724 64.0899C74.2288 65.3295 73.7222 66.7403 72.844 68.1753C71.9537 69.6302 70.6215 71.2074 68.9674 72.8138C65.6571 76.0287 60.9894 79.4264 55.7751 82.266C50.5612 85.1052 44.7687 87.4042 39.2043 88.3952C33.6471 89.3849 28.2454 89.0818 23.8856 86.6214L23.6067 86.464L23.555 86.148C23.4604 85.5685 23.1888 84.7236 22.8488 83.6658C22.7898 83.4825 22.7288 83.2927 22.6664 83.0969C22.2553 81.8082 21.8007 80.3116 21.5465 78.8346C21.2939 77.3673 21.2247 75.8448 21.6464 74.5293C22.0821 73.1701 23.0297 72.0763 24.6804 71.5085L24.7913 71.4703L24.9085 71.4723C31.2076 71.5772 47.4333 68.3415 62.0622 53.533L62.3177 53.2744ZM62.7498 54.7342C48.0102 69.5002 31.6924 72.8753 25.0084 72.808C23.8357 73.242 23.2188 73.9952 22.917 74.9366C22.5922 75.9496 22.6226 77.2206 22.8614 78.6082C23.0986 79.9861 23.5274 81.4059 23.9375 82.6914C23.9963 82.8756 24.0552 83.0584 24.1133 83.2389C24.399 84.1257 24.6662 84.9554 24.8088 85.6066C28.7534 87.7238 33.698 88.0206 38.9703 87.0816C44.3554 86.1225 50.0104 83.8859 55.1369 81.0942C60.2629 78.3027 64.8281 74.9738 68.0379 71.8566C69.6439 70.2969 70.8934 68.8066 71.7059 67.4788C72.5306 66.1312 72.8479 65.0441 72.7486 64.2569C72.3689 61.2471 70.609 59.0229 68.4991 57.4483C66.5348 55.9822 64.3084 55.1133 62.7498 54.7342Z" fill="#0F0C20"/>
<path fill-rule="evenodd" clip-rule="evenodd" d="M48.1551 76.1413C48.347 76.4559 48.2475 76.8664 47.9329 77.0583C34.8224 85.0542 25.597 83.3994 22.4618 81.3429C22.1537 81.1408 22.0678 80.7272 22.2699 80.4191C22.472 80.111 22.8856 80.0251 23.1937 80.2272C25.7481 81.9028 34.3911 83.7544 47.2382 75.9191C47.5527 75.7273 47.9633 75.8268 48.1551 76.1413Z" fill="#0F0C20"/>
<path fill-rule="evenodd" clip-rule="evenodd" d="M67.2393 55.0522C67.5389 55.2666 67.608 55.6834 67.3936 55.983C65.1258 59.1523 58.3471 66.2862 49.1838 69.7032C48.8385 69.832 48.4543 69.6565 48.3256 69.3112C48.1968 68.966 48.3723 68.5818 48.7176 68.453C57.5637 65.1543 64.1466 58.2279 66.3085 55.2066C66.5229 54.9069 66.9396 54.8378 67.2393 55.0522Z" fill="#0F0C20"/>
<g filter="url(#filter0_d_116_147)">
<path fill-rule="evenodd" clip-rule="evenodd" d="M33.4446 56.8031C33.6415 56.8675 33.8029 57.0104 33.8907 57.1979C34.5677 58.6432 35.2827 60.9345 35.1789 63.1132C35.1265 64.2111 34.8641 65.3209 34.2437 66.278C33.6153 67.2473 32.6517 68.0094 31.2932 68.4465C29.7321 68.9488 28.5268 69.0919 27.5456 68.9086C26.5288 68.7187 25.8422 68.1957 25.3014 67.5666C25.0389 67.2614 24.808 66.9282 24.593 66.6041C24.5225 66.4979 24.4547 66.3941 24.3875 66.2915C24.2422 66.0692 24.1004 65.8524 23.9435 65.6283C23.4978 64.9918 22.9935 64.3929 22.2624 63.9017C22.045 63.7557 21.9195 63.5068 21.9314 63.2451C21.9433 62.9835 22.0909 62.747 22.3206 62.6213L32.8515 56.8581C33.0331 56.7587 33.2478 56.7388 33.4446 56.8031ZM24.0222 63.4C24.489 63.846 24.8565 64.3171 25.1722 64.7679C25.3431 65.012 25.5067 65.2621 25.6582 65.4937C25.722 65.5913 25.7837 65.6856 25.8429 65.7748C26.0505 66.0876 26.2395 66.3569 26.4388 66.5887C26.8213 67.0337 27.2251 67.3228 27.8211 67.4341C28.4526 67.5521 29.3823 67.4856 30.8338 67.0186C31.8853 66.6803 32.5568 66.1226 32.985 65.462C33.4212 64.7892 33.6368 63.9592 33.6806 63.0418C33.7537 61.5078 33.3402 59.8438 32.8463 58.5708L24.0222 63.4Z" fill="#021429"/>
</g>
</g>
<defs>
<filter id="filter0_d_116_147" x="11.9307" y="46.766" width="33.2578" height="32.2191" filterUnits="userSpaceOnUse" color-interpolation-filters="sRGB">
<feFlood flood-opacity="0" result="BackgroundImageFix"/>
<feColorMatrix in="SourceAlpha" type="matrix" values="0 0 0 0 0 0 0 0 0 0 0 0 0 0 0 0 0 0 127 0" result="hardAlpha"/>
<feOffset/>
<feGaussianBlur stdDeviation="5"/>
<feComposite in2="hardAlpha" operator="out"/>
<feColorMatrix type="matrix" values="0 0 0 0 0.929412 0 0 0 0 0.709804 0 0 0 0 0.619608 0 0 0 0.83 0"/>
<feBlend mode="normal" in2="BackgroundImageFix" result="effect1_dropShadow_116_147"/>
<feBlend mode="normal" in="SourceGraphic" in2="effect1_dropShadow_116_147" result="shape"/>
</filter>
<linearGradient id="paint0_linear_116_147" x1="60.6337" y1="3" x2="60.6337" y2="140.482" gradientUnits="userSpaceOnUse">
<stop stop-color="white"/>
<stop offset="0.245" stop-color="#DDDDDD"/>
</linearGradient>
<linearGradient id="paint1_linear_116_147" x1="60.6337" y1="3" x2="60.6337" y2="140.482" gradientUnits="userSpaceOnUse">
<stop stop-color="white"/>
<stop offset="0.245" stop-color="#DDDDDD"/>
</linearGradient>
<linearGradient id="paint2_linear_116_147" x1="53.8242" y1="239.392" x2="75.4343" y2="-8.51397" gradientUnits="userSpaceOnUse">
<stop offset="0.0549777" stop-color="#E6E6E6"/>
<stop offset="1" stop-color="#909BA8"/>
</linearGradient>
<linearGradient id="paint3_linear_116_147" x1="60.6337" y1="3" x2="60.6337" y2="140.482" gradientUnits="userSpaceOnUse">
<stop stop-color="white"/>
<stop offset="0.245" stop-color="#DDDDDD"/>
</linearGradient>
<linearGradient id="paint4_linear_116_147" x1="47.5783" y1="11.6994" x2="110.941" y2="116.611" gradientUnits="userSpaceOnUse">
<stop stop-color="#1D0E5B"/>
<stop offset="1" stop-color="#080533"/>
</linearGradient>
<linearGradient id="paint5_linear_116_147" x1="76.6998" y1="16.1939" x2="5.16467" y2="112.814" gradientUnits="userSpaceOnUse">
<stop stop-color="#E087C6"/>
<stop offset="1" stop-color="#EEBC97"/>
</linearGradient>
<clipPath id="clip0_116_147">
<rect width="85" height="85" fill="white"/>
</clipPath>
</defs>
</svg>
