# Blender 4.1.0
# www.blender.org
mtllib Door.mtl
o Door
v 3.000000 6.000000 0.000000
v 3.000000 0.000000 0.000000
v 0.000000 6.000000 0.000000
v 1.301420 0.664169 -0.000000
v 1.301420 4.324056 0.000000
v 0.000000 0.664169 -0.000000
v 1.127581 4.786375 0.000000
v 0.953743 5.036651 0.000000
v 0.779905 5.197736 0.000000
v 0.495595 5.431146 0.000000
v 0.000000 5.634062 0.000000
v 0.000000 0.000000 0.000000
v 3.000000 6.000000 -0.200000
v 3.000000 -0.000000 -0.200000
v 0.000000 6.000000 -0.200000
v 1.301420 0.664169 -0.200000
v 1.301420 4.324056 -0.200000
v 0.000000 0.664169 -0.200000
v 1.127581 4.786375 -0.200000
v 0.953743 5.036651 -0.200000
v 0.779905 5.197736 -0.200000
v 0.495595 5.431146 -0.200000
v 0.000000 5.634062 -0.200000
v 0.000000 -0.000000 -0.200000
v 1.233972 0.765498 -0.000000
v 1.209170 4.287617 0.000000
v 0.000000 0.765498 -0.000000
v 1.052254 4.698463 0.000000
v 0.895381 4.923304 0.000000
v 0.734085 5.072051 0.000000
v 0.456615 5.300356 0.000000
v 0.000000 5.501659 0.000000
v 1.233972 0.765498 -0.200000
v 1.209170 4.287617 -0.200000
v 0.000000 0.765498 -0.200000
v 1.052254 4.698463 -0.200000
v 0.895381 4.923304 -0.200000
v 0.734085 5.072051 -0.200000
v 0.456615 5.300356 -0.200000
v 0.000000 5.501659 -0.200000
v 1.301420 4.324056 0.146256
v 0.000000 0.664169 0.146256
v 1.127581 4.786375 0.146256
v 0.953743 5.036651 0.146256
v 0.779905 5.197736 0.146256
v 0.495595 5.431146 0.146256
v 0.000000 5.634062 0.146256
v 0.000000 0.765498 0.146256
v 1.209170 4.287617 0.146256
v 1.233972 0.765498 0.146256
v 0.895381 4.923304 0.146256
v 1.052254 4.698463 0.146256
v 0.734085 5.072051 0.146256
v 0.456615 5.300356 0.146256
v 0.000000 5.501659 0.146256
v 1.301420 0.000000 -0.000000
v 0.000000 0.000000 0.146256
v 0.000000 0.553474 -0.000000
v 0.000000 0.442779 -0.000000
v 0.000000 0.332084 -0.000000
v 0.000000 0.221390 -0.000000
v 0.000000 0.110695 -0.000000
v 1.301420 0.442779 -0.000000
v 1.301420 0.110695 -0.000000
v 1.301420 0.221390 -0.000000
v 1.301420 0.332084 -0.000000
v 0.000000 0.110695 0.146256
v 0.000000 0.221390 0.146256
v 0.000000 0.332084 0.146256
v 0.000000 0.442779 0.146256
v 0.000000 0.553474 0.146256
v 0.000000 0.664169 0.375089
v 1.301420 0.664169 0.375089
v 1.301420 0.553474 0.375089
v 0.000000 0.553474 0.375089
v 1.301420 0.442779 0.548244
v 1.301420 0.553474 0.548244
v 0.000000 0.442779 0.548244
v 0.000000 0.553474 0.548244
v 1.301420 0.332084 0.710166
v 1.301420 0.442779 0.710166
v 0.000000 0.332084 0.710166
v 0.000000 0.442779 0.710166
v 1.301420 0.221390 0.881113
v 1.301420 0.332084 0.881113
v 0.000000 0.221390 0.881113
v 0.000000 0.332084 0.881113
v 1.301420 0.110695 1.055313
v 1.301420 0.221390 1.055313
v 0.000000 0.110695 1.055313
v 0.000000 0.221390 1.055313
v 0.000000 0.000000 1.220962
v 1.301420 0.000000 1.220962
v 1.301420 0.110695 1.220962
v 0.000000 0.110695 1.220962
v 1.415446 0.553474 -0.000000
v 1.415446 0.664169 -0.000000
v 1.415446 0.553474 0.375089
v 1.415446 0.664169 0.375089
v 1.526724 0.442779 -0.000000
v 1.526724 0.553474 -0.000000
v 1.526724 0.442779 0.548244
v 1.526724 0.553474 0.548244
v 1.669087 0.332084 -0.000000
v 1.669087 0.442779 -0.000000
v 1.669087 0.332084 0.710166
v 1.669087 0.442779 0.710166
v 1.818780 0.221390 -0.000000
v 1.818780 0.332084 -0.000000
v 1.818780 0.221390 0.881113
v 1.818780 0.332084 0.881113
v 1.953992 0.110695 -0.000000
v 1.953992 0.221390 -0.000000
v 1.953992 0.110695 1.055313
v 1.953992 0.221390 1.055313
v 2.080472 0.000000 -0.000000
v 2.080472 0.110695 -0.000000
v 2.080472 0.000000 1.220962
v 2.080472 0.110695 1.220962
v 1.301420 0.664169 0.146256
v 1.301420 0.553474 -0.000000
v 1.301420 0.664169 0.146256
v 0.000000 0.664169 0.146256
v -3.000000 6.000000 0.000000
v -3.000000 0.000000 0.000000
v -1.301420 0.664169 -0.000000
v -1.301420 4.324056 0.000000
v -1.127581 4.786375 0.000000
v -0.953743 5.036651 0.000000
v -0.779905 5.197736 0.000000
v -0.495595 5.431146 0.000000
v -3.000000 6.000000 -0.200000
v -3.000000 -0.000000 -0.200000
v -1.301420 0.664169 -0.200000
v -1.301420 4.324056 -0.200000
v -1.127581 4.786375 -0.200000
v -0.953743 5.036651 -0.200000
v -0.779905 5.197736 -0.200000
v -0.495595 5.431146 -0.200000
v -1.233972 0.765498 -0.000000
v -1.209170 4.287617 0.000000
v -1.052254 4.698463 0.000000
v -0.895381 4.923304 0.000000
v -0.734085 5.072051 0.000000
v -0.456615 5.300356 0.000000
v -1.233972 0.765498 -0.200000
v -1.209170 4.287617 -0.200000
v -1.052254 4.698463 -0.200000
v -0.895381 4.923304 -0.200000
v -0.734085 5.072051 -0.200000
v -0.456615 5.300356 -0.200000
v -1.301420 4.324056 0.146256
v -1.127581 4.786375 0.146256
v -0.953743 5.036651 0.146256
v -0.779905 5.197736 0.146256
v -0.495595 5.431146 0.146256
v -1.209170 4.287617 0.146256
v -1.233972 0.765498 0.146256
v -0.895381 4.923304 0.146256
v -1.052254 4.698463 0.146256
v -0.734085 5.072051 0.146256
v -0.456615 5.300356 0.146256
v -1.301420 0.000000 -0.000000
v -1.301420 0.442779 -0.000000
v -1.301420 0.110695 -0.000000
v -1.301420 0.221390 -0.000000
v -1.301420 0.332084 -0.000000
v -1.301420 0.664169 0.375089
v -1.301420 0.553474 0.375089
v -1.301420 0.442779 0.548244
v -1.301420 0.553474 0.548244
v -1.301420 0.332084 0.710166
v -1.301420 0.442779 0.710166
v -1.301420 0.221390 0.881113
v -1.301420 0.332084 0.881113
v -1.301420 0.110695 1.055313
v -1.301420 0.221390 1.055313
v -1.301420 0.000000 1.220962
v -1.301420 0.110695 1.220962
v -1.415446 0.553474 -0.000000
v -1.415446 0.664169 -0.000000
v -1.415446 0.553474 0.375089
v -1.415446 0.664169 0.375089
v -1.526724 0.442779 -0.000000
v -1.526724 0.553474 -0.000000
v -1.526724 0.442779 0.548244
v -1.526724 0.553474 0.548244
v -1.669087 0.332084 -0.000000
v -1.669087 0.442779 -0.000000
v -1.669087 0.332084 0.710166
v -1.669087 0.442779 0.710166
v -1.818780 0.221390 -0.000000
v -1.818780 0.332084 -0.000000
v -1.818780 0.221390 0.881113
v -1.818780 0.332084 0.881113
v -1.953992 0.110695 -0.000000
v -1.953992 0.221390 -0.000000
v -1.953992 0.110695 1.055313
v -1.953992 0.221390 1.055313
v -2.080472 0.000000 -0.000000
v -2.080472 0.110695 -0.000000
v -2.080472 0.000000 1.220962
v -2.080472 0.110695 1.220962
v -1.301420 0.664169 0.146256
v -1.301420 0.553474 -0.000000
v -1.301420 0.664169 0.146256
v 0.000000 6.000000 0.000000
v 3.000000 6.000000 0.000000
v 3.000000 6.000000 0.000000
v 3.000000 0.000000 0.000000
v 3.000000 0.000000 0.000000
v 1.301420 0.664169 -0.000000
v 1.301420 0.664169 -0.000000
v 1.301420 0.664169 -0.000000
v 1.301420 0.664169 -0.000000
v 1.301420 4.324056 0.000000
v 0.000000 0.664169 -0.000000
v 1.127581 4.786375 0.000000
v 0.953743 5.036651 0.000000
v 0.779905 5.197736 0.000000
v 0.495595 5.431146 0.000000
v 0.000000 5.634062 0.000000
v 0.000000 5.634062 0.000000
v 0.000000 0.000000 0.000000
v 0.000000 0.000000 0.000000
v 0.000000 0.000000 0.000000
v 0.000000 6.000000 -0.200000
v 3.000000 6.000000 -0.200000
v 3.000000 6.000000 -0.200000
v 3.000000 -0.000000 -0.200000
v 3.000000 -0.000000 -0.200000
v 0.000000 -0.000000 -0.200000
v 1.233972 0.765498 -0.200000
v 1.233972 0.765498 -0.200000
v 1.209170 4.287617 -0.200000
v 0.000000 0.765498 -0.200000
v 1.052254 4.698463 -0.200000
v 0.895381 4.923304 -0.200000
v 0.734085 5.072051 -0.200000
v 0.456615 5.300356 -0.200000
v 0.000000 5.501659 -0.200000
v 0.000000 5.501659 -0.200000
v 1.233972 0.765498 -0.000000
v 0.000000 5.501659 0.000000
v 1.233972 0.765498 0.146256
v 1.233972 0.765498 0.146256
v 0.000000 5.501659 0.146256
v 0.000000 5.501659 0.146256
v 1.301420 4.324056 0.146256
v 1.127581 4.786375 0.146256
v 0.953743 5.036651 0.146256
v 0.779905 5.197736 0.146256
v 0.495595 5.431146 0.146256
v 0.000000 5.634062 0.146256
v 0.000000 5.634062 0.146256
v 1.209170 4.287617 0.146256
v 0.000000 0.765498 0.146256
v 1.052254 4.698463 0.146256
v 0.895381 4.923304 0.146256
v 0.734085 5.072051 0.146256
v 0.456615 5.300356 0.146256
v 1.301420 0.332084 -0.000000
v 1.301420 0.332084 -0.000000
v 0.000000 0.332084 0.146256
v 1.301420 0.221390 -0.000000
v 1.301420 0.221390 -0.000000
v 0.000000 0.221390 0.146256
v 1.301420 0.110695 -0.000000
v 1.301420 0.110695 -0.000000
v 0.000000 0.110695 0.146256
v 0.000000 0.664169 0.375089
v 1.301420 0.664169 0.375089
v 1.301420 0.553474 0.375089
v 0.000000 0.553474 0.375089
v 1.301420 0.553474 0.548244
v 0.000000 0.553474 0.548244
v 1.301420 0.442779 0.548244
v 0.000000 0.442779 0.548244
v 1.301420 0.442779 0.710166
v 0.000000 0.442779 0.710166
v 1.301420 0.332084 0.710166
v 0.000000 0.332084 0.710166
v 1.301420 0.332084 0.881113
v 0.000000 0.332084 0.881113
v 1.301420 0.221390 0.881113
v 0.000000 0.221390 0.881113
v 1.301420 0.221390 1.055313
v 0.000000 0.221390 1.055313
v 1.301420 0.110695 1.055313
v 0.000000 0.110695 1.055313
v 0.000000 0.000000 1.220962
v 1.301420 0.000000 1.220962
v 1.301420 0.110695 1.220962
v 0.000000 0.110695 1.220962
v 1.415446 0.553474 -0.000000
v 1.415446 0.553474 -0.000000
v 1.415446 0.664169 -0.000000
v 1.415446 0.664169 -0.000000
v 1.415446 0.553474 0.375089
v 1.415446 0.553474 0.375089
v 1.415446 0.664169 0.375089
v 1.415446 0.664169 0.375089
v 1.526724 0.442779 -0.000000
v 1.526724 0.442779 -0.000000
v 1.526724 0.553474 -0.000000
v 1.526724 0.553474 -0.000000
v 1.526724 0.442779 0.548244
v 1.526724 0.442779 0.548244
v 1.526724 0.553474 0.548244
v 1.526724 0.553474 0.548244
v 1.301420 0.553474 -0.000000
v 1.301420 0.553474 -0.000000
v 1.301420 0.553474 -0.000000
v 1.301420 0.553474 -0.000000
v 1.669087 0.332084 -0.000000
v 1.669087 0.332084 -0.000000
v 1.669087 0.442779 -0.000000
v 1.669087 0.442779 -0.000000
v 1.669087 0.332084 0.710166
v 1.669087 0.332084 0.710166
v 1.669087 0.442779 0.710166
v 1.669087 0.442779 0.710166
v 1.818780 0.221390 -0.000000
v 1.818780 0.221390 -0.000000
v 1.818780 0.332084 -0.000000
v 1.818780 0.332084 -0.000000
v 1.818780 0.221390 0.881113
v 1.818780 0.221390 0.881113
v 1.818780 0.332084 0.881113
v 1.818780 0.332084 0.881113
v 1.953992 0.110695 -0.000000
v 1.953992 0.110695 -0.000000
v 1.953992 0.221390 -0.000000
v 1.953992 0.221390 -0.000000
v 1.953992 0.110695 1.055313
v 1.953992 0.110695 1.055313
v 1.953992 0.221390 1.055313
v 1.953992 0.221390 1.055313
v 2.080472 0.000000 -0.000000
v 2.080472 0.000000 -0.000000
v 2.080472 0.110695 -0.000000
v 2.080472 0.110695 -0.000000
v 2.080472 0.000000 1.220962
v 2.080472 0.000000 1.220962
v 2.080472 0.110695 1.220962
v 2.080472 0.110695 1.220962
v 1.301420 0.000000 -0.000000
v 0.000000 0.553474 0.146256
v 1.301420 0.442779 -0.000000
v 1.301420 0.442779 -0.000000
v 0.000000 0.442779 0.146256
v -3.000000 6.000000 0.000000
v -3.000000 6.000000 0.000000
v -3.000000 0.000000 0.000000
v -3.000000 0.000000 0.000000
v -1.301420 0.664169 -0.000000
v -1.301420 0.664169 -0.000000
v -1.301420 0.664169 -0.000000
v -1.301420 0.664169 -0.000000
v -1.301420 4.324056 0.000000
v -1.127581 4.786375 0.000000
v -0.953743 5.036651 0.000000
v -0.779905 5.197736 0.000000
v -0.495595 5.431146 0.000000
v -3.000000 6.000000 -0.200000
v -3.000000 6.000000 -0.200000
v -3.000000 -0.000000 -0.200000
v -3.000000 -0.000000 -0.200000
v -1.233972 0.765498 -0.200000
v -1.233972 0.765498 -0.200000
v -1.209170 4.287617 -0.200000
v -1.052254 4.698463 -0.200000
v -0.895381 4.923304 -0.200000
v -0.734085 5.072051 -0.200000
v -0.456615 5.300356 -0.200000
v -1.233972 0.765498 -0.000000
v -1.233972 0.765498 0.146256
v -1.233972 0.765498 0.146256
v -1.301420 4.324056 0.146256
v -1.127581 4.786375 0.146256
v -0.953743 5.036651 0.146256
v -0.779905 5.197736 0.146256
v -0.495595 5.431146 0.146256
v -1.209170 4.287617 0.146256
v -1.052254 4.698463 0.146256
v -0.895381 4.923304 0.146256
v -0.734085 5.072051 0.146256
v -0.456615 5.300356 0.146256
v -1.301420 0.332084 -0.000000
v -1.301420 0.332084 -0.000000
v -1.301420 0.221390 -0.000000
v -1.301420 0.221390 -0.000000
v -1.301420 0.110695 -0.000000
v -1.301420 0.110695 -0.000000
v -1.301420 0.664169 0.375089
v -1.301420 0.553474 0.375089
v -1.301420 0.553474 0.548244
v -1.301420 0.442779 0.548244
v -1.301420 0.442779 0.710166
v -1.301420 0.332084 0.710166
v -1.301420 0.332084 0.881113
v -1.301420 0.221390 0.881113
v -1.301420 0.221390 1.055313
v -1.301420 0.110695 1.055313
v -1.301420 0.000000 1.220962
v -1.301420 0.110695 1.220962
v -1.415446 0.553474 -0.000000
v -1.415446 0.553474 -0.000000
v -1.415446 0.664169 -0.000000
v -1.415446 0.664169 -0.000000
v -1.415446 0.553474 0.375089
v -1.415446 0.553474 0.375089
v -1.415446 0.664169 0.375089
v -1.415446 0.664169 0.375089
v -1.526724 0.442779 -0.000000
v -1.526724 0.442779 -0.000000
v -1.526724 0.553474 -0.000000
v -1.526724 0.553474 -0.000000
v -1.526724 0.442779 0.548244
v -1.526724 0.442779 0.548244
v -1.526724 0.553474 0.548244
v -1.526724 0.553474 0.548244
v -1.301420 0.553474 -0.000000
v -1.301420 0.553474 -0.000000
v -1.301420 0.553474 -0.000000
v -1.301420 0.553474 -0.000000
v -1.669087 0.332084 -0.000000
v -1.669087 0.332084 -0.000000
v -1.669087 0.442779 -0.000000
v -1.669087 0.442779 -0.000000
v -1.669087 0.332084 0.710166
v -1.669087 0.332084 0.710166
v -1.669087 0.442779 0.710166
v -1.669087 0.442779 0.710166
v -1.818780 0.221390 -0.000000
v -1.818780 0.221390 -0.000000
v -1.818780 0.332084 -0.000000
v -1.818780 0.332084 -0.000000
v -1.818780 0.221390 0.881113
v -1.818780 0.221390 0.881113
v -1.818780 0.332084 0.881113
v -1.818780 0.332084 0.881113
v -1.953992 0.110695 -0.000000
v -1.953992 0.110695 -0.000000
v -1.953992 0.221390 -0.000000
v -1.953992 0.221390 -0.000000
v -1.953992 0.110695 1.055313
v -1.953992 0.110695 1.055313
v -1.953992 0.221390 1.055313
v -1.953992 0.221390 1.055313
v -2.080472 0.000000 -0.000000
v -2.080472 0.000000 -0.000000
v -2.080472 0.110695 -0.000000
v -2.080472 0.110695 -0.000000
v -2.080472 0.000000 1.220962
v -2.080472 0.000000 1.220962
v -2.080472 0.110695 1.220962
v -2.080472 0.110695 1.220962
v -1.301420 0.000000 -0.000000
v -1.301420 0.442779 -0.000000
v -1.301420 0.442779 -0.000000
vn 1.0000 -0.0000 -0.0000
vn -0.0000 -1.0000 -0.0000
vn -0.0000 1.0000 -0.0000
vn -0.0000 -0.0000 -1.0000
vn 0.9850 0.1724 -0.0000
vn 0.8883 0.4593 -0.0000
vn 0.7580 0.6523 -0.0000
vn 0.6576 0.7533 -0.0000
vn 0.5179 0.8554 -0.0000
vn -0.3789 0.9254 -0.0000
vn -0.9840 -0.1783 -0.0000
vn -0.8865 -0.4627 -0.0000
vn -0.7565 -0.6540 -0.0000
vn -0.6571 -0.7538 -0.0000
vn -0.5289 -0.8487 -0.0000
vn 0.4034 -0.9150 -0.0000
vn -0.0000 -0.0000 1.0000
vn -1.0000 -0.0070 -0.0000
vn -1.0000 -0.0000 -0.0000
vn -0.9850 0.1724 -0.0000
vn -0.8883 0.4593 -0.0000
vn -0.7580 0.6523 -0.0000
vn -0.6576 0.7533 -0.0000
vn -0.5179 0.8554 -0.0000
vn 0.9840 -0.1783 -0.0000
vn 0.8865 -0.4627 -0.0000
vn 0.7565 -0.6540 -0.0000
vn 0.6571 -0.7538 -0.0000
vn 0.5289 -0.8487 -0.0000
vn 1.0000 -0.0070 -0.0000
vn 0.3789 0.9254 -0.0000
vn -0.4034 -0.9150 -0.0000
vt 0.000000 0.000000
vt 0.900000 1.000000
vt 1.000000 1.000000
vt 0.800000 1.000000
vt 0.700000 1.000000
vt 0.600000 1.000000
vt 0.500000 1.000000
vt 1.000000 0.000000
s 1
f 208/1/17 218/2/17 216/3/17
f 219/4/17 208/1/17 220/5/17
f 208/1/17 219/4/17 218/2/17
f 221/6/17 220/5/17 208/1/17
f 221/6/17 208/1/17 222/7/17
f 222/7/17 208/1/17 207/1/17
f 224/1/17 210/1/17 217/1/17
f 217/1/17 210/1/17 212/8/17
f 208/1/17 216/3/17 212/8/17 210/1/17
f 228/1/4 17/3/4 19/2/4
f 20/4/4 21/5/4 228/1/4
f 228/1/4 19/2/4 20/4/4
f 22/6/4 228/1/4 21/5/4
f 22/6/4 23/7/4 228/1/4
f 23/7/4 227/1/4 228/1/4
f 232/1/4 18/1/4 230/1/4
f 18/1/4 16/8/4 230/1/4
f 228/1/4 230/1/4 16/8/4 17/3/4
f 21/5/4 239/5/4 240/6/4 22/6/4
f 209/1/3 229/1/3 15/1/3 3/1/3
f 29/4/13 51/4/13 260/5/14 30/5/14
f 20/4/4 238/4/4 239/5/4 21/5/4
f 211/1/1 231/1/1 13/1/1 1/1/1
f 7/2/6 250/2/6 249/3/5 5/3/5
f 19/2/4 237/2/4 238/4/4 20/4/4
f 28/2/12 258/2/12 51/4/13 29/4/13
f 225/1/2 24/1/2 14/1/2 2/1/2
f 17/3/4 235/3/4 237/2/4 19/2/4
f 25/8/3 234/8/3 236/1/3 27/1/3
f 31/6/15 39/6/15 38/5/14 30/5/14
f 28/2/12 36/2/12 34/3/11 26/3/11
f 244/7/32 241/7/32 39/6/15 31/6/15
f 29/4/13 37/4/13 36/2/12 28/2/12
f 26/3/11 34/3/11 233/8/18 243/8/18
f 30/5/14 38/5/14 37/4/13 29/4/13
f 22/6/4 240/6/4 242/7/4 23/7/4
f 26/3/11 256/3/11 258/2/12 28/2/12
f 5/3/5 249/3/5 122/8/1 213/8/1
f 16/8/4 33/8/4 235/3/4 17/3/4
f 27/1/3 257/1/3 245/8/3 25/8/3
f 18/1/4 35/1/4 33/8/4 16/8/4
f 43/2/17 52/2/17 49/3/17 41/3/17
f 120/8/17 246/8/17 48/1/17 123/1/17
f 41/3/17 49/3/17 246/8/17 120/8/17
f 251/4/17 259/4/17 52/2/17 43/2/17
f 252/5/17 53/5/17 259/4/17 251/4/17
f 253/6/17 261/6/17 53/5/17 252/5/17
f 254/7/17 248/7/17 261/6/17 253/6/17
f 8/4/7 44/4/7 250/2/6 7/2/6
f 30/5/14 260/5/14 54/6/15 31/6/15
f 9/5/8 45/5/8 44/4/7 8/4/7
f 31/6/15 54/6/15 247/7/32 244/7/32
f 10/6/9 46/6/9 45/5/8 9/5/8
f 223/7/31 255/7/31 46/6/9 10/6/9
f 243/8/18 50/8/18 256/3/11 26/3/11
f 347/8/2 57/1/2 12/1/2
f 270/1/3 95/1/3 94/8/3 269/8/3
f 268/8/4 56/8/4 226/1/4 62/1/4
f 215/8/4 312/8/4 58/1/4 6/1/4
f 312/8/4 349/8/4 59/1/4 58/1/4
f 349/8/4 262/8/4 60/1/4 59/1/4
f 262/8/4 265/8/4 61/1/4 60/1/4
f 265/8/4 268/8/4 62/1/4 61/1/4
f 314/8/2 296/8/2 300/8/2 74/8/2
f 312/8/4 305/8/4 303/8/4 349/8/4
f 66/8/2 316/8/2 320/8/2 80/8/2
f 69/1/3 87/1/3 85/8/3 263/8/3
f 89/8/3 338/8/3 334/8/3 65/8/3
f 122/8/1 311/8/1 213/8/1
f 72/1/17 274/1/17 273/8/17 272/8/17
f 314/8/2 74/8/2 75/1/2 348/1/2
f 42/1/3 271/1/3 73/8/3 214/8/3
f 276/1/17 78/1/17 277/8/17 275/8/17
f 71/1/3 79/1/3 77/8/3 313/8/3
f 350/8/2 76/8/2 278/1/2 351/1/2
f 280/1/17 82/1/17 281/8/17 279/8/17
f 66/8/2 80/8/2 282/1/2 264/1/2
f 70/1/3 83/1/3 81/8/3 63/8/3
f 284/1/17 86/1/17 285/8/17 283/8/17
f 262/8/4 325/8/4 323/8/4 265/8/4
f 266/8/2 84/8/2 286/1/2 68/1/2
f 91/1/17 290/1/17 289/8/17 287/8/17
f 64/8/2 88/8/2 90/1/2 67/1/2
f 267/1/3 288/1/3 89/8/3 65/8/3
f 294/1/17 291/1/17 292/8/17 293/8/17
f 268/8/4 341/8/4 339/8/4 56/8/4
f 347/8/2 93/8/2 92/1/2 57/1/2
f 297/8/1 301/8/1 299/8/1 295/8/1
f 73/8/3 302/8/3 298/8/3 214/8/3
f 273/8/17 98/8/17 99/8/17 272/8/17
f 4/8/4 97/8/4 96/8/4 121/8/4
f 306/8/1 309/8/1 307/8/1 304/8/1
f 350/8/2 100/8/2 308/8/2 76/8/2
f 277/8/17 102/8/17 310/8/17 275/8/17
f 77/8/3 103/8/3 101/8/3 313/8/3
f 317/8/1 321/8/1 319/8/1 315/8/1
f 281/8/17 106/8/17 322/8/17 279/8/17
f 349/8/4 318/8/4 104/8/4 262/8/4
f 81/8/3 107/8/3 105/8/3 63/8/3
f 326/8/1 329/8/1 327/8/1 324/8/1
f 266/8/2 108/8/2 328/8/2 84/8/2
f 85/8/3 330/8/3 109/8/3 263/8/3
f 285/8/17 110/8/17 111/8/17 283/8/17
f 333/8/1 337/8/1 335/8/1 331/8/1
f 265/8/4 113/8/4 332/8/4 268/8/4
f 64/8/2 112/8/2 336/8/2 88/8/2
f 289/8/17 114/8/17 115/8/17 287/8/17
f 342/8/1 345/8/1 343/8/1 340/8/1
f 292/8/17 344/8/17 346/8/17 293/8/17
f 347/8/2 116/8/2 118/8/2 93/8/2
f 94/8/3 119/8/3 117/8/3 269/8/3
f 352/1/17 360/3/17 361/2/17
f 362/4/17 363/5/17 352/1/17
f 352/1/17 361/2/17 362/4/17
f 364/6/17 352/1/17 363/5/17
f 364/6/17 222/7/17 352/1/17
f 222/7/17 207/1/17 352/1/17
f 224/1/17 217/1/17 354/1/17
f 217/1/17 356/8/17 354/1/17
f 352/1/17 354/1/17 356/8/17 360/3/17
f 365/1/4 136/2/4 135/3/4
f 137/4/4 365/1/4 138/5/4
f 365/1/4 137/4/4 136/2/4
f 139/6/4 138/5/4 365/1/4
f 139/6/4 365/1/4 23/7/4
f 23/7/4 365/1/4 227/1/4
f 232/1/4 367/1/4 18/1/4
f 18/1/4 367/1/4 134/8/4
f 365/1/4 135/3/4 134/8/4 367/1/4
f 138/5/4 139/6/4 375/6/4 374/5/4
f 353/1/3 3/1/3 15/1/3 366/1/3
f 143/4/27 144/5/28 387/5/28 159/4/27
f 137/4/4 138/5/4 374/5/4 373/4/4
f 355/1/19 124/1/19 132/1/19 368/1/19
f 128/2/21 127/3/20 379/3/20 380/2/21
f 136/2/4 137/4/4 373/4/4 372/2/4
f 142/2/26 143/4/27 159/4/27 385/2/26
f 225/1/2 125/1/2 133/1/2 24/1/2
f 135/3/4 136/2/4 372/2/4 371/3/4
f 140/8/3 27/1/3 236/1/3 370/8/3
f 145/6/29 144/5/28 150/5/28 151/6/29
f 142/2/26 141/3/25 147/3/25 148/2/26
f 32/7/16 145/6/29 151/6/29 40/7/16
f 143/4/27 142/2/26 148/2/26 149/4/27
f 141/3/25 376/8/30 369/8/30 147/3/25
f 144/5/28 143/4/27 149/4/27 150/5/28
f 139/6/4 23/7/4 242/7/4 375/6/4
f 141/3/25 142/2/26 385/2/26 384/3/25
f 127/3/20 357/8/19 206/8/19 379/3/20
f 134/8/4 135/3/4 371/3/4 146/8/4
f 27/1/3 140/8/3 377/8/3 257/1/3
f 18/1/4 134/8/4 146/8/4 35/1/4
f 153/2/17 152/3/17 157/3/17 160/2/17
f 204/8/17 123/1/17 48/1/17 378/8/17
f 152/3/17 204/8/17 378/8/17 157/3/17
f 381/4/17 153/2/17 160/2/17 386/4/17
f 382/5/17 381/4/17 386/4/17 161/5/17
f 383/6/17 382/5/17 161/5/17 388/6/17
f 254/7/17 383/6/17 388/6/17 248/7/17
f 129/4/22 128/2/21 380/2/21 154/4/22
f 144/5/28 145/6/29 162/6/29 387/5/28
f 130/5/23 129/4/22 154/4/22 155/5/23
f 145/6/29 32/7/16 55/7/16 162/6/29
f 131/6/24 130/5/23 155/5/23 156/6/24
f 11/7/10 131/6/24 156/6/24 47/7/10
f 376/8/30 141/3/25 384/3/25 158/8/30
f 459/8/2 12/1/2 57/1/2
f 270/1/3 394/8/3 179/8/3 95/1/3
f 393/8/4 62/1/4 226/1/4 163/8/4
f 359/8/4 6/1/4 58/1/4 424/8/4
f 424/8/4 58/1/4 59/1/4 460/8/4
f 460/8/4 59/1/4 60/1/4 389/8/4
f 389/8/4 60/1/4 61/1/4 391/8/4
f 391/8/4 61/1/4 62/1/4 393/8/4
f 426/8/2 169/8/2 412/8/2 408/8/2
f 424/8/4 460/8/4 415/8/4 417/8/4
f 167/8/2 172/8/2 432/8/2 428/8/2
f 69/1/3 390/8/3 175/8/3 87/1/3
f 177/8/3 166/8/3 446/8/3 450/8/3
f 206/8/19 357/8/19 423/8/19
f 72/1/17 395/8/17 396/8/17 274/1/17
f 426/8/2 348/1/2 75/1/2 169/8/2
f 42/1/3 358/8/3 168/8/3 271/1/3
f 276/1/17 397/8/17 398/8/17 78/1/17
f 71/1/3 425/8/3 171/8/3 79/1/3
f 461/8/2 351/1/2 278/1/2 170/8/2
f 280/1/17 399/8/17 400/8/17 82/1/17
f 167/8/2 264/1/2 282/1/2 172/8/2
f 70/1/3 164/8/3 173/8/3 83/1/3
f 284/1/17 401/8/17 402/8/17 86/1/17
f 389/8/4 391/8/4 435/8/4 437/8/4
f 392/8/2 68/1/2 286/1/2 174/8/2
f 91/1/17 403/8/17 404/8/17 290/1/17
f 165/8/2 67/1/2 90/1/2 176/8/2
f 267/1/3 166/8/3 177/8/3 288/1/3
f 294/1/17 406/8/17 405/8/17 291/1/17
f 393/8/4 163/8/4 451/8/4 453/8/4
f 459/8/2 57/1/2 92/1/2 178/8/2
f 409/8/19 407/8/19 411/8/19 413/8/19
f 168/8/3 358/8/3 410/8/3 414/8/3
f 396/8/17 395/8/17 183/8/17 182/8/17
f 126/8/4 205/8/4 180/8/4 181/8/4
f 418/8/19 416/8/19 419/8/19 421/8/19
f 461/8/2 170/8/2 420/8/2 184/8/2
f 398/8/17 397/8/17 422/8/17 186/8/17
f 171/8/3 425/8/3 185/8/3 187/8/3
f 429/8/19 427/8/19 431/8/19 433/8/19
f 400/8/17 399/8/17 434/8/17 190/8/17
f 460/8/4 389/8/4 188/8/4 430/8/4
f 173/8/3 164/8/3 189/8/3 191/8/3
f 438/8/19 436/8/19 439/8/19 441/8/19
f 392/8/2 174/8/2 440/8/2 192/8/2
f 175/8/3 390/8/3 193/8/3 442/8/3
f 402/8/17 401/8/17 195/8/17 194/8/17
f 445/8/19 443/8/19 447/8/19 449/8/19
f 391/8/4 393/8/4 444/8/4 197/8/4
f 165/8/2 176/8/2 448/8/2 196/8/2
f 404/8/17 403/8/17 199/8/17 198/8/17
f 454/8/19 452/8/19 455/8/19 457/8/19
f 405/8/17 406/8/17 458/8/17 456/8/17
f 459/8/2 178/8/2 202/8/2 200/8/2
f 179/8/3 394/8/3 201/8/3 203/8/3
