# Blender 4.1.0
# www.blender.org
mtllib Window1.mtl
o Window1
v 1.500000 6.000000 0.000000
v 1.500000 0.000000 0.000000
v 0.000000 6.000000 0.000000
v 0.868076 0.791424 -0.000000
v 0.868076 4.451311 0.000000
v 0.000000 0.791424 -0.000000
v 0.694461 4.913630 0.000000
v 0.520845 5.163907 0.000000
v 0.347230 5.324992 0.000000
v 0.173615 5.450969 0.000000
v 0.000000 5.559091 0.000000
v 0.000000 0.000000 0.000000
v 1.500000 6.000000 -0.200000
v 1.500000 -0.000000 -0.200000
v 0.000000 6.000000 -0.200000
v 0.868076 0.791424 -0.200000
v 0.868076 4.451311 -0.200000
v 0.000000 0.791424 -0.200000
v 0.694461 4.913630 -0.200000
v 0.520845 5.163907 -0.200000
v 0.347230 5.324992 -0.200000
v 0.173615 5.450969 -0.200000
v 0.000000 5.559091 -0.200000
v 0.000000 -0.000000 -0.200000
v 0.800714 0.892753 -0.000000
v 0.775944 4.414873 0.000000
v 0.000000 0.892753 -0.000000
v 0.619229 4.825719 0.000000
v 0.462559 5.050559 0.000000
v 0.301470 5.199306 0.000000
v 0.134685 5.320180 0.000000
v 0.000000 5.426687 0.000000
v 0.800714 0.892753 -0.200000
v 0.775944 4.414873 -0.200000
v 0.000000 0.892753 -0.200000
v 0.619229 4.825719 -0.200000
v 0.462559 5.050559 -0.200000
v 0.301470 5.199306 -0.200000
v 0.134685 5.320180 -0.200000
v 0.000000 5.426687 -0.200000
v 0.868076 0.791424 0.146256
v 0.868076 4.451311 0.146256
v 0.000000 0.791424 0.146256
v 0.694461 4.913630 0.146256
v 0.520845 5.163907 0.146256
v 0.347230 5.324992 0.146256
v 0.173615 5.450969 0.146256
v 0.000000 5.559091 0.146256
v 0.000000 0.892753 0.146256
v 0.775944 4.414873 0.146256
v 0.800714 0.892753 0.146256
v 0.462559 5.050559 0.146256
v 0.619229 4.825719 0.146256
v 0.301470 5.199306 0.146256
v 0.134685 5.320180 0.146256
v 0.000000 5.426687 0.146256
v -1.500000 6.000000 0.000000
v -1.500000 0.000000 0.000000
v -0.868076 0.791424 -0.000000
v -0.868076 4.451311 0.000000
v -0.694461 4.913630 0.000000
v -0.520845 5.163907 0.000000
v -0.347230 5.324992 0.000000
v -0.173615 5.450969 0.000000
v -1.500000 6.000000 -0.200000
v -1.500000 -0.000000 -0.200000
v -0.868076 0.791424 -0.200000
v -0.868076 4.451311 -0.200000
v -0.694461 4.913630 -0.200000
v -0.520845 5.163907 -0.200000
v -0.347230 5.324992 -0.200000
v -0.173615 5.450969 -0.200000
v -0.800714 0.892753 -0.000000
v -0.775944 4.414873 0.000000
v -0.619229 4.825719 0.000000
v -0.462559 5.050559 0.000000
v -0.301470 5.199306 0.000000
v -0.134685 5.320180 0.000000
v -0.800714 0.892753 -0.200000
v -0.775944 4.414873 -0.200000
v -0.619229 4.825719 -0.200000
v -0.462559 5.050559 -0.200000
v -0.301470 5.199306 -0.200000
v -0.134685 5.320180 -0.200000
v -0.868076 0.791424 0.146256
v -0.868076 4.451311 0.146256
v -0.694461 4.913630 0.146256
v -0.520845 5.163907 0.146256
v -0.347230 5.324992 0.146256
v -0.173615 5.450969 0.146256
v -0.775944 4.414873 0.146256
v -0.800714 0.892753 0.146256
v -0.462559 5.050559 0.146256
v -0.619229 4.825719 0.146256
v -0.301470 5.199306 0.146256
v -0.134685 5.320180 0.146256
v 0.000000 6.000000 0.000000
v 1.500000 6.000000 0.000000
v 1.500000 6.000000 0.000000
v 1.500000 0.000000 0.000000
v 1.500000 0.000000 0.000000
v 0.868076 0.791424 -0.000000
v 0.868076 0.791424 -0.000000
v 0.868076 4.451311 0.000000
v 0.000000 0.791424 -0.000000
v 0.694461 4.913630 0.000000
v 0.520845 5.163907 0.000000
v 0.347230 5.324992 0.000000
v 0.173615 5.450969 0.000000
v 0.000000 5.559091 0.000000
v 0.000000 5.559091 0.000000
v 0.000000 0.000000 0.000000
v 0.000000 6.000000 -0.200000
v 1.500000 6.000000 -0.200000
v 1.500000 6.000000 -0.200000
v 1.500000 -0.000000 -0.200000
v 1.500000 -0.000000 -0.200000
v 0.000000 -0.000000 -0.200000
v 0.800714 0.892753 -0.200000
v 0.800714 0.892753 -0.200000
v 0.775944 4.414873 -0.200000
v 0.000000 0.892753 -0.200000
v 0.619229 4.825719 -0.200000
v 0.462559 5.050559 -0.200000
v 0.301470 5.199306 -0.200000
v 0.134685 5.320180 -0.200000
v 0.000000 5.426687 -0.200000
v 0.000000 5.426687 -0.200000
v 0.800714 0.892753 -0.000000
v 0.000000 5.426687 0.000000
v 0.868076 0.791424 0.146256
v 0.868076 0.791424 0.146256
v 0.800714 0.892753 0.146256
v 0.800714 0.892753 0.146256
v 0.000000 5.426687 0.146256
v 0.000000 5.426687 0.146256
v 0.868076 4.451311 0.146256
v 0.000000 0.791424 0.146256
v 0.694461 4.913630 0.146256
v 0.520845 5.163907 0.146256
v 0.347230 5.324992 0.146256
v 0.173615 5.450969 0.146256
v 0.000000 5.559091 0.146256
v 0.000000 5.559091 0.146256
v 0.775944 4.414873 0.146256
v 0.000000 0.892753 0.146256
v 0.619229 4.825719 0.146256
v 0.462559 5.050559 0.146256
v 0.301470 5.199306 0.146256
v 0.134685 5.320180 0.146256
v -1.500000 6.000000 0.000000
v -1.500000 6.000000 0.000000
v -1.500000 0.000000 0.000000
v -1.500000 0.000000 0.000000
v -0.868076 0.791424 -0.000000
v -0.868076 0.791424 -0.000000
v -0.868076 4.451311 0.000000
v -0.694461 4.913630 0.000000
v -0.520845 5.163907 0.000000
v -0.347230 5.324992 0.000000
v -0.173615 5.450969 0.000000
v -1.500000 6.000000 -0.200000
v -1.500000 6.000000 -0.200000
v -1.500000 -0.000000 -0.200000
v -1.500000 -0.000000 -0.200000
v -0.800714 0.892753 -0.200000
v -0.800714 0.892753 -0.200000
v -0.775944 4.414873 -0.200000
v -0.619229 4.825719 -0.200000
v -0.462559 5.050559 -0.200000
v -0.301470 5.199306 -0.200000
v -0.134685 5.320180 -0.200000
v -0.800714 0.892753 -0.000000
v -0.868076 0.791424 0.146256
v -0.868076 0.791424 0.146256
v -0.800714 0.892753 0.146256
v -0.800714 0.892753 0.146256
v -0.868076 4.451311 0.146256
v -0.694461 4.913630 0.146256
v -0.520845 5.163907 0.146256
v -0.347230 5.324992 0.146256
v -0.173615 5.450969 0.146256
v -0.775944 4.414873 0.146256
v -0.619229 4.825719 0.146256
v -0.462559 5.050559 0.146256
v -0.301470 5.199306 0.146256
v -0.134685 5.320180 0.146256
vn 1.0000 -0.0000 -0.0000
vn -0.0000 -1.0000 -0.0000
vn -0.0000 1.0000 -0.0000
vn 0.9851 0.1722 -0.0000
vn 0.8885 0.4588 -0.0000
vn 0.7584 0.6518 -0.0000
vn 0.6359 0.7718 -0.0000
vn 0.5586 0.8294 -0.0000
vn -0.5286 0.8489 -0.0000
vn -0.0000 -0.0000 -1.0000
vn -0.9840 -0.1781 -0.0000
vn -0.8868 -0.4622 -0.0000
vn -0.7570 -0.6535 -0.0000
vn -0.6347 -0.7728 -0.0000
vn -0.6038 -0.7971 -0.0000
vn 0.6203 -0.7844 -0.0000
vn -0.0000 -0.0000 1.0000
vn -1.0000 -0.0070 -0.0000
vn -1.0000 -0.0000 -0.0000
vn -0.9851 0.1722 -0.0000
vn -0.8885 0.4588 -0.0000
vn -0.7584 0.6518 -0.0000
vn -0.6359 0.7718 -0.0000
vn -0.5586 0.8294 -0.0000
vn 0.9840 -0.1781 -0.0000
vn 0.8868 -0.4622 -0.0000
vn 0.7570 -0.6535 -0.0000
vn 0.6347 -0.7728 -0.0000
vn 0.6038 -0.7971 -0.0000
vn 1.0000 -0.0070 -0.0000
vn 0.5286 0.8489 -0.0000
vn -0.6203 -0.7844 -0.0000
vt 0.000000 0.000000
vt 0.900000 1.000000
vt 1.000000 1.000000
vt 0.800000 1.000000
vt 0.700000 1.000000
vt 0.600000 1.000000
vt 0.500000 1.000000
vt 1.000000 0.000000
s 1
f 98/1/17 106/2/17 104/3/17
f 107/4/17 98/1/17 108/5/17
f 98/1/17 107/4/17 106/2/17
f 109/6/17 108/5/17 98/1/17
f 109/6/17 98/1/17 110/7/17
f 110/7/17 98/1/17 97/1/17
f 112/1/17 100/1/17 105/1/17
f 105/1/17 100/1/17 102/8/17
f 98/1/17 104/3/17 102/8/17 100/1/17
f 114/1/10 17/3/10 19/2/10
f 20/4/10 21/5/10 114/1/10
f 114/1/10 19/2/10 20/4/10
f 22/6/10 114/1/10 21/5/10
f 22/6/10 23/7/10 114/1/10
f 23/7/10 113/1/10 114/1/10
f 118/1/10 18/1/10 116/1/10
f 18/1/10 16/8/10 116/1/10
f 114/1/10 116/1/10 16/8/10 17/3/10
f 21/5/10 125/5/10 126/6/10 22/6/10
f 99/1/3 115/1/3 15/1/3 3/1/3
f 29/4/13 52/4/13 149/5/14 30/5/14
f 20/4/10 124/4/10 125/5/10 21/5/10
f 101/1/1 117/1/1 13/1/1 1/1/1
f 7/2/5 139/2/5 137/3/4 5/3/4
f 19/2/10 123/2/10 124/4/10 20/4/10
f 28/2/12 147/2/12 52/4/13 29/4/13
f 12/1/2 24/1/2 14/1/2 2/1/2
f 17/3/10 121/3/10 123/2/10 19/2/10
f 25/8/3 120/8/3 122/1/3 27/1/3
f 31/6/15 39/6/15 38/5/14 30/5/14
f 28/2/12 36/2/12 34/3/11 26/3/11
f 130/7/32 127/7/32 39/6/15 31/6/15
f 29/4/13 37/4/13 36/2/12 28/2/12
f 26/3/11 34/3/11 119/8/18 129/8/18
f 30/5/14 38/5/14 37/4/13 29/4/13
f 103/8/2 131/8/2 138/1/2 6/1/2
f 22/6/10 126/6/10 128/7/10 23/7/10
f 26/3/11 145/3/11 147/2/12 28/2/12
f 5/3/4 137/3/4 132/8/1 4/8/1
f 16/8/10 33/8/10 121/3/10 17/3/10
f 27/1/3 146/1/3 133/8/3 25/8/3
f 18/1/10 35/1/10 33/8/10 16/8/10
f 44/2/17 53/2/17 50/3/17 42/3/17
f 41/8/17 134/8/17 49/1/17 43/1/17
f 42/3/17 50/3/17 134/8/17 41/8/17
f 140/4/17 148/4/17 53/2/17 44/2/17
f 141/5/17 54/5/17 148/4/17 140/4/17
f 142/6/17 150/6/17 54/5/17 141/5/17
f 143/7/17 136/7/17 150/6/17 142/6/17
f 8/4/6 45/4/6 139/2/5 7/2/5
f 30/5/14 149/5/14 55/6/15 31/6/15
f 9/5/7 46/5/7 45/4/6 8/4/6
f 31/6/15 55/6/15 135/7/32 130/7/32
f 10/6/8 47/6/8 46/5/7 9/5/7
f 111/7/31 144/7/31 47/6/8 10/6/8
f 129/8/18 51/8/18 145/3/11 26/3/11
f 151/1/17 157/3/17 158/2/17
f 159/4/17 160/5/17 151/1/17
f 151/1/17 158/2/17 159/4/17
f 161/6/17 151/1/17 160/5/17
f 161/6/17 110/7/17 151/1/17
f 110/7/17 97/1/17 151/1/17
f 112/1/17 105/1/17 153/1/17
f 105/1/17 155/8/17 153/1/17
f 151/1/17 153/1/17 155/8/17 157/3/17
f 162/1/10 69/2/10 68/3/10
f 70/4/10 162/1/10 71/5/10
f 162/1/10 70/4/10 69/2/10
f 72/6/10 71/5/10 162/1/10
f 72/6/10 162/1/10 23/7/10
f 23/7/10 162/1/10 113/1/10
f 118/1/10 164/1/10 18/1/10
f 18/1/10 164/1/10 67/8/10
f 162/1/10 68/3/10 67/8/10 164/1/10
f 71/5/10 72/6/10 172/6/10 171/5/10
f 152/1/3 3/1/3 15/1/3 163/1/3
f 76/4/27 77/5/28 186/5/28 93/4/27
f 70/4/10 71/5/10 171/5/10 170/4/10
f 154/1/19 57/1/19 65/1/19 165/1/19
f 61/2/21 60/3/20 178/3/20 179/2/21
f 69/2/10 70/4/10 170/4/10 169/2/10
f 75/2/26 76/4/27 93/4/27 184/2/26
f 12/1/2 58/1/2 66/1/2 24/1/2
f 68/3/10 69/2/10 169/2/10 168/3/10
f 73/8/3 27/1/3 122/1/3 167/8/3
f 78/6/29 77/5/28 83/5/28 84/6/29
f 75/2/26 74/3/25 80/3/25 81/2/26
f 32/7/16 78/6/29 84/6/29 40/7/16
f 76/4/27 75/2/26 81/2/26 82/4/27
f 74/3/25 173/8/30 166/8/30 80/3/25
f 77/5/28 76/4/27 82/4/27 83/5/28
f 156/8/2 6/1/2 138/1/2 174/8/2
f 72/6/10 23/7/10 128/7/10 172/6/10
f 74/3/25 75/2/26 184/2/26 183/3/25
f 60/3/20 59/8/19 175/8/19 178/3/20
f 67/8/10 68/3/10 168/3/10 79/8/10
f 27/1/3 73/8/3 176/8/3 146/1/3
f 18/1/10 67/8/10 79/8/10 35/1/10
f 87/2/17 86/3/17 91/3/17 94/2/17
f 85/8/17 43/1/17 49/1/17 177/8/17
f 86/3/17 85/8/17 177/8/17 91/3/17
f 180/4/17 87/2/17 94/2/17 185/4/17
f 181/5/17 180/4/17 185/4/17 95/5/17
f 182/6/17 181/5/17 95/5/17 187/6/17
f 143/7/17 182/6/17 187/6/17 136/7/17
f 62/4/22 61/2/21 179/2/21 88/4/22
f 77/5/28 78/6/29 96/6/29 186/5/28
f 63/5/23 62/4/22 88/4/22 89/5/23
f 78/6/29 32/7/16 56/7/16 96/6/29
f 64/6/24 63/5/23 89/5/23 90/6/24
f 11/7/9 64/6/24 90/6/24 48/7/9
f 173/8/30 74/3/25 183/3/25 92/8/30
