# Blender 4.1.0
# www.blender.org
mtllib Window2.mtl
o Window2
v 0.000000 6.000000 0.000000
v 0.000000 0.000000 0.000000
v -1.500000 6.000000 0.000000
v -0.397738 1.808827 -0.005278
v -0.397738 4.390490 -0.005278
v -1.010073 1.808827 -0.005278
v -0.520205 4.716607 -0.005278
v -0.642672 4.893150 -0.005278
v -0.765139 5.006779 -0.005278
v -0.887606 5.095643 -0.005278
v -1.010073 5.171911 -0.005278
v -1.500000 0.000000 0.000000
v 0.000000 6.000000 -0.200000
v 0.000000 -0.000000 -0.200000
v -1.500000 6.000000 -0.200000
v -0.397738 1.808827 -0.200000
v -0.397738 4.390490 -0.200000
v -1.010073 1.808827 -0.200000
v -0.520205 4.716607 -0.200000
v -0.642672 4.893150 -0.200000
v -0.765139 5.006779 -0.200000
v -0.887606 5.095643 -0.200000
v -1.010073 5.171911 -0.200000
v -1.500000 -0.000000 -0.200000
v -0.445254 1.880304 -0.005278
v -0.462727 4.364786 -0.005278
v -1.010073 1.880304 -0.005278
v -0.573272 4.654594 -0.005278
v -0.683787 4.813196 -0.005278
v -0.797418 4.918121 -0.005278
v -0.915067 5.003385 -0.005278
v -1.010073 5.078514 -0.005278
v -0.445254 1.880304 -0.200000
v -0.462727 4.364786 -0.200000
v -1.010073 1.880304 -0.200000
v -0.573272 4.654594 -0.200000
v -0.683787 4.813196 -0.200000
v -0.797418 4.918121 -0.200000
v -0.915067 5.003385 -0.200000
v -1.010073 5.078514 -0.200000
v -0.397738 1.808827 0.097890
v -0.397738 4.390490 0.097890
v -1.010073 1.808827 0.097890
v -0.520205 4.716607 0.097890
v -0.642672 4.893150 0.097890
v -0.765139 5.006779 0.097890
v -0.887606 5.095643 0.097890
v -1.010073 5.171911 0.097890
v -1.010073 1.880304 0.097890
v -0.462727 4.364786 0.097890
v -0.445254 1.880304 0.097890
v -0.683787 4.813196 0.097890
v -0.573272 4.654594 0.097890
v -0.797418 4.918121 0.097890
v -0.915067 5.003385 0.097890
v -1.010073 5.078514 0.097890
v -3.000000 6.000000 0.000000
v -3.000000 0.000000 0.000000
v -1.622409 1.808827 -0.005278
v -1.622409 4.390490 -0.005278
v -1.499942 4.716607 -0.005278
v -1.377474 4.893150 -0.005278
v -1.255007 5.006779 -0.005278
v -1.132540 5.095643 -0.005278
v -3.000000 6.000000 -0.200000
v -3.000000 -0.000000 -0.200000
v -1.622409 1.808827 -0.200000
v -1.622409 4.390490 -0.200000
v -1.499942 4.716607 -0.200000
v -1.377474 4.893150 -0.200000
v -1.255007 5.006779 -0.200000
v -1.132540 5.095643 -0.200000
v -1.574892 1.880304 -0.005278
v -1.557419 4.364786 -0.005278
v -1.446874 4.654594 -0.005278
v -1.336359 4.813196 -0.005278
v -1.222728 4.918121 -0.005278
v -1.105079 5.003385 -0.005278
v -1.574892 1.880304 -0.200000
v -1.557419 4.364786 -0.200000
v -1.446874 4.654594 -0.200000
v -1.336359 4.813196 -0.200000
v -1.222728 4.918121 -0.200000
v -1.105079 5.003385 -0.200000
v -1.622409 1.808827 0.097890
v -1.622409 4.390490 0.097890
v -1.499942 4.716607 0.097890
v -1.377474 4.893150 0.097890
v -1.255007 5.006779 0.097890
v -1.132540 5.095643 0.097890
v -1.557419 4.364786 0.097890
v -1.574892 1.880304 0.097890
v -1.336359 4.813196 0.097890
v -1.446874 4.654594 0.097890
v -1.222728 4.918121 0.097890
v -1.105079 5.003385 0.097890
v -1.500000 6.000000 0.000000
v 0.000000 6.000000 0.000000
v 0.000000 6.000000 0.000000
v 0.000000 0.000000 0.000000
v 0.000000 0.000000 0.000000
v -0.397738 1.808827 -0.005278
v -0.397738 1.808827 -0.005278
v -0.397738 4.390490 -0.005278
v -1.010073 1.808827 -0.005278
v -0.520205 4.716607 -0.005278
v -0.642672 4.893150 -0.005278
v -0.765139 5.006779 -0.005278
v -0.887606 5.095643 -0.005278
v -1.010073 5.171911 -0.005278
v -1.010073 5.171911 -0.005278
v -1.500000 0.000000 0.000000
v -1.500000 6.000000 -0.200000
v 0.000000 6.000000 -0.200000
v 0.000000 6.000000 -0.200000
v 0.000000 -0.000000 -0.200000
v 0.000000 -0.000000 -0.200000
v -1.500000 -0.000000 -0.200000
v -0.445254 1.880304 -0.200000
v -0.445254 1.880304 -0.200000
v -0.462727 4.364786 -0.200000
v -1.010073 1.880304 -0.200000
v -0.573272 4.654594 -0.200000
v -0.683787 4.813196 -0.200000
v -0.797418 4.918121 -0.200000
v -0.915067 5.003385 -0.200000
v -1.010073 5.078514 -0.200000
v -1.010073 5.078514 -0.200000
v -0.445254 1.880304 -0.005278
v -1.010073 5.078514 -0.005278
v -0.397738 1.808827 0.097890
v -0.397738 1.808827 0.097890
v -0.445254 1.880304 0.097890
v -0.445254 1.880304 0.097890
v -1.010073 5.078514 0.097890
v -1.010073 5.078514 0.097890
v -0.397738 4.390490 0.097890
v -1.010073 1.808827 0.097890
v -0.520205 4.716607 0.097890
v -0.642672 4.893150 0.097890
v -0.765139 5.006779 0.097890
v -0.887606 5.095643 0.097890
v -1.010073 5.171911 0.097890
v -1.010073 5.171911 0.097890
v -0.462727 4.364786 0.097890
v -1.010073 1.880304 0.097890
v -0.573272 4.654594 0.097890
v -0.683787 4.813196 0.097890
v -0.797418 4.918121 0.097890
v -0.915067 5.003385 0.097890
v -3.000000 6.000000 0.000000
v -3.000000 6.000000 0.000000
v -3.000000 0.000000 0.000000
v -3.000000 0.000000 0.000000
v -1.622409 1.808827 -0.005278
v -1.622409 1.808827 -0.005278
v -1.622409 4.390490 -0.005278
v -1.499942 4.716607 -0.005278
v -1.377474 4.893150 -0.005278
v -1.255007 5.006779 -0.005278
v -1.132540 5.095643 -0.005278
v -3.000000 6.000000 -0.200000
v -3.000000 6.000000 -0.200000
v -3.000000 -0.000000 -0.200000
v -3.000000 -0.000000 -0.200000
v -1.574892 1.880304 -0.200000
v -1.574892 1.880304 -0.200000
v -1.557419 4.364786 -0.200000
v -1.446874 4.654594 -0.200000
v -1.336359 4.813196 -0.200000
v -1.222728 4.918121 -0.200000
v -1.105079 5.003385 -0.200000
v -1.574892 1.880304 -0.005278
v -1.622409 1.808827 0.097890
v -1.622409 1.808827 0.097890
v -1.574892 1.880304 0.097890
v -1.574892 1.880304 0.097890
v -1.622409 4.390490 0.097890
v -1.499942 4.716607 0.097890
v -1.377474 4.893150 0.097890
v -1.255007 5.006779 0.097890
v -1.132540 5.095643 0.097890
v -1.557419 4.364786 0.097890
v -1.446874 4.654594 0.097890
v -1.336359 4.813196 0.097890
v -1.222728 4.918121 0.097890
v -1.105079 5.003385 0.097890
v 1.500000 6.000000 0.000000
v 0.397738 1.808827 -0.005278
v 0.397738 4.390490 -0.005278
v 1.010073 1.808827 -0.005278
v 0.520205 4.716607 -0.005278
v 0.642672 4.893150 -0.005278
v 0.765139 5.006779 -0.005278
v 0.887606 5.095643 -0.005278
v 1.010073 5.171911 -0.005278
v 1.500000 0.000000 0.000000
v 1.500000 6.000000 -0.200000
v 0.397738 1.808827 -0.200000
v 0.397738 4.390490 -0.200000
v 1.010073 1.808827 -0.200000
v 0.520205 4.716607 -0.200000
v 0.642672 4.893150 -0.200000
v 0.765139 5.006779 -0.200000
v 0.887606 5.095643 -0.200000
v 1.010073 5.171911 -0.200000
v 1.500000 -0.000000 -0.200000
v 0.445254 1.880304 -0.005278
v 0.462727 4.364786 -0.005278
v 1.010073 1.880304 -0.005278
v 0.573272 4.654594 -0.005278
v 0.683787 4.813196 -0.005278
v 0.797418 4.918121 -0.005278
v 0.915067 5.003385 -0.005278
v 1.010073 5.078514 -0.005278
v 0.445254 1.880304 -0.200000
v 0.462727 4.364786 -0.200000
v 1.010073 1.880304 -0.200000
v 0.573272 4.654594 -0.200000
v 0.683787 4.813196 -0.200000
v 0.797418 4.918121 -0.200000
v 0.915067 5.003385 -0.200000
v 1.010073 5.078514 -0.200000
v 0.397738 1.808827 0.097890
v 0.397738 4.390490 0.097890
v 1.010073 1.808827 0.097890
v 0.520205 4.716607 0.097890
v 0.642672 4.893150 0.097890
v 0.765139 5.006779 0.097890
v 0.887606 5.095643 0.097890
v 1.010073 5.171911 0.097890
v 1.010073 1.880304 0.097890
v 0.462727 4.364786 0.097890
v 0.445254 1.880304 0.097890
v 0.683787 4.813196 0.097890
v 0.573272 4.654594 0.097890
v 0.797418 4.918121 0.097890
v 0.915067 5.003385 0.097890
v 1.010073 5.078514 0.097890
v 3.000000 6.000000 0.000000
v 3.000000 0.000000 0.000000
v 1.622409 1.808827 -0.005278
v 1.622409 4.390490 -0.005278
v 1.499942 4.716607 -0.005278
v 1.377474 4.893150 -0.005278
v 1.255007 5.006779 -0.005278
v 1.132540 5.095643 -0.005278
v 3.000000 6.000000 -0.200000
v 3.000000 -0.000000 -0.200000
v 1.622409 1.808827 -0.200000
v 1.622409 4.390490 -0.200000
v 1.499942 4.716607 -0.200000
v 1.377474 4.893150 -0.200000
v 1.255007 5.006779 -0.200000
v 1.132540 5.095643 -0.200000
v 1.574892 1.880304 -0.005278
v 1.557419 4.364786 -0.005278
v 1.446874 4.654594 -0.005278
v 1.336359 4.813196 -0.005278
v 1.222728 4.918121 -0.005278
v 1.105079 5.003385 -0.005278
v 1.574892 1.880304 -0.200000
v 1.557419 4.364786 -0.200000
v 1.446874 4.654594 -0.200000
v 1.336359 4.813196 -0.200000
v 1.222728 4.918121 -0.200000
v 1.105079 5.003385 -0.200000
v 1.622409 1.808827 0.097890
v 1.622409 4.390490 0.097890
v 1.499942 4.716607 0.097890
v 1.377474 4.893150 0.097890
v 1.255007 5.006779 0.097890
v 1.132540 5.095643 0.097890
v 1.557419 4.364786 0.097890
v 1.574892 1.880304 0.097890
v 1.336359 4.813196 0.097890
v 1.446874 4.654594 0.097890
v 1.222728 4.918121 0.097890
v 1.105079 5.003385 0.097890
v 1.500000 6.000000 0.000000
v 0.397738 1.808827 -0.005278
v 0.397738 1.808827 -0.005278
v 0.397738 4.390490 -0.005278
v 1.010073 1.808827 -0.005278
v 0.520205 4.716607 -0.005278
v 0.642672 4.893150 -0.005278
v 0.765139 5.006779 -0.005278
v 0.887606 5.095643 -0.005278
v 1.010073 5.171911 -0.005278
v 1.010073 5.171911 -0.005278
v 1.500000 0.000000 0.000000
v 1.500000 6.000000 -0.200000
v 1.500000 -0.000000 -0.200000
v 0.445254 1.880304 -0.200000
v 0.445254 1.880304 -0.200000
v 0.462727 4.364786 -0.200000
v 1.010073 1.880304 -0.200000
v 0.573272 4.654594 -0.200000
v 0.683787 4.813196 -0.200000
v 0.797418 4.918121 -0.200000
v 0.915067 5.003385 -0.200000
v 1.010073 5.078514 -0.200000
v 1.010073 5.078514 -0.200000
v 0.445254 1.880304 -0.005278
v 1.010073 5.078514 -0.005278
v 0.397738 1.808827 0.097890
v 0.397738 1.808827 0.097890
v 0.445254 1.880304 0.097890
v 0.445254 1.880304 0.097890
v 1.010073 5.078514 0.097890
v 1.010073 5.078514 0.097890
v 0.397738 4.390490 0.097890
v 1.010073 1.808827 0.097890
v 0.520205 4.716607 0.097890
v 0.642672 4.893150 0.097890
v 0.765139 5.006779 0.097890
v 0.887606 5.095643 0.097890
v 1.010073 5.171911 0.097890
v 1.010073 5.171911 0.097890
v 0.462727 4.364786 0.097890
v 1.010073 1.880304 0.097890
v 0.573272 4.654594 0.097890
v 0.683787 4.813196 0.097890
v 0.797418 4.918121 0.097890
v 0.915067 5.003385 0.097890
v 3.000000 6.000000 0.000000
v 3.000000 6.000000 0.000000
v 3.000000 0.000000 0.000000
v 3.000000 0.000000 0.000000
v 1.622409 1.808827 -0.005278
v 1.622409 1.808827 -0.005278
v 1.622409 4.390490 -0.005278
v 1.499942 4.716607 -0.005278
v 1.377474 4.893150 -0.005278
v 1.255007 5.006779 -0.005278
v 1.132540 5.095643 -0.005278
v 3.000000 6.000000 -0.200000
v 3.000000 6.000000 -0.200000
v 3.000000 -0.000000 -0.200000
v 3.000000 -0.000000 -0.200000
v 1.574892 1.880304 -0.200000
v 1.574892 1.880304 -0.200000
v 1.557419 4.364786 -0.200000
v 1.446874 4.654594 -0.200000
v 1.336359 4.813196 -0.200000
v 1.222728 4.918121 -0.200000
v 1.105079 5.003385 -0.200000
v 1.574892 1.880304 -0.005278
v 1.622409 1.808827 0.097890
v 1.622409 1.808827 0.097890
v 1.574892 1.880304 0.097890
v 1.574892 1.880304 0.097890
v 1.622409 4.390490 0.097890
v 1.499942 4.716607 0.097890
v 1.377474 4.893150 0.097890
v 1.255007 5.006779 0.097890
v 1.132540 5.095643 0.097890
v 1.557419 4.364786 0.097890
v 1.446874 4.654594 0.097890
v 1.336359 4.813196 0.097890
v 1.222728 4.918121 0.097890
v 1.105079 5.003385 0.097890
vn 1.0000 -0.0000 -0.0000
vn -0.0000 -1.0000 -0.0000
vn -0.0000 1.0000 -0.0000
vn 0.9851 0.1722 -0.0000
vn 0.8885 0.4588 -0.0000
vn 0.7584 0.6518 -0.0000
vn 0.6359 0.7718 -0.0000
vn 0.5586 0.8294 -0.0000
vn -0.5286 0.8489 -0.0000
vn -0.0000 -0.0000 -1.0000
vn -0.9840 -0.1781 -0.0000
vn -0.8868 -0.4622 -0.0000
vn -0.7570 -0.6535 -0.0000
vn -0.6347 -0.7728 -0.0000
vn -0.6038 -0.7971 -0.0000
vn 0.6203 -0.7844 -0.0000
vn -0.0000 -0.0000 1.0000
vn -1.0000 -0.0070 -0.0000
vn -1.0000 -0.0000 -0.0000
vn -0.9851 0.1722 -0.0000
vn -0.8885 0.4588 -0.0000
vn -0.7584 0.6518 -0.0000
vn -0.6359 0.7718 -0.0000
vn -0.5586 0.8294 -0.0000
vn 0.9840 -0.1781 -0.0000
vn 0.8868 -0.4622 -0.0000
vn 0.7570 -0.6535 -0.0000
vn 0.6347 -0.7728 -0.0000
vn 0.6038 -0.7971 -0.0000
vn 1.0000 -0.0070 -0.0000
vn -0.0000 -0.0064 1.0000
vn -0.0000 -0.0033 1.0000
vn -0.0000 0.0023 1.0000
vn -0.0079 0.0012 1.0000
vn -0.0114 -0.0005 0.9999
vn -0.0000 0.0029 1.0000
vn -0.0047 -0.0022 1.0000
vn -0.0033 -0.0029 1.0000
vn -0.0026 -0.0033 1.0000
vn -0.0023 -0.0036 1.0000
vn -0.0002 -0.0051 1.0000
vn 0.5286 0.8489 -0.0000
vn -0.6203 -0.7844 -0.0000
vn 0.0028 -0.0015 1.0000
vn 0.0021 0.0013 1.0000
vn 0.0019 0.0015 1.0000
vn 0.0034 -0.0004 1.0000
vn 0.0024 -0.0013 1.0000
vn 0.0020 -0.0018 1.0000
vn 0.0017 -0.0022 1.0000
vn 0.0016 -0.0025 1.0000
vn 0.0079 0.0012 1.0000
vn 0.0114 -0.0005 0.9999
vn 0.0047 -0.0022 1.0000
vn 0.0033 -0.0029 1.0000
vn 0.0026 -0.0033 1.0000
vn 0.0023 -0.0036 1.0000
vn 0.0002 -0.0051 1.0000
vn -0.0028 -0.0015 1.0000
vn -0.0021 0.0013 1.0000
vn -0.0019 0.0015 1.0000
vn -0.0034 -0.0004 1.0000
vn -0.0024 -0.0013 1.0000
vn -0.0020 -0.0018 1.0000
vn -0.0017 -0.0022 1.0000
vn -0.0016 -0.0025 1.0000
vt 0.000000 0.000000
vt 0.900000 1.000000
vt 1.000000 1.000000
vt 0.800000 1.000000
vt 0.700000 1.000000
vt 0.600000 1.000000
vt 0.500000 1.000000
vt 1.000000 0.000000
s 1
f 98/1/32 106/2/37 104/3/35
f 107/4/38 98/1/32 108/5/39
f 98/1/32 107/4/38 106/2/37
f 109/6/40 108/5/39 98/1/32
f 109/6/40 98/1/32 110/7/41
f 110/7/41 98/1/32 97/1/31
f 112/1/36 100/1/33 105/1/36
f 105/1/36 100/1/33 102/8/34
f 98/1/32 104/3/35 102/8/34 100/1/33
f 114/1/10 17/3/10 19/2/10
f 20/4/10 21/5/10 114/1/10
f 114/1/10 19/2/10 20/4/10
f 22/6/10 114/1/10 21/5/10
f 22/6/10 23/7/10 114/1/10
f 23/7/10 113/1/10 114/1/10
f 118/1/10 18/1/10 116/1/10
f 18/1/10 16/8/10 116/1/10
f 114/1/10 116/1/10 16/8/10 17/3/10
f 21/5/10 125/5/10 126/6/10 22/6/10
f 99/1/3 115/1/3 15/1/3 3/1/3
f 29/4/13 52/4/13 149/5/14 30/5/14
f 20/4/10 124/4/10 125/5/10 21/5/10
f 101/1/1 117/1/1 13/1/1 1/1/1
f 7/2/5 139/2/5 137/3/4 5/3/4
f 19/2/10 123/2/10 124/4/10 20/4/10
f 28/2/12 147/2/12 52/4/13 29/4/13
f 12/1/2 24/1/2 14/1/2 2/1/2
f 17/3/10 121/3/10 123/2/10 19/2/10
f 25/8/3 120/8/3 122/1/3 27/1/3
f 31/6/15 39/6/15 38/5/14 30/5/14
f 28/2/12 36/2/12 34/3/11 26/3/11
f 130/7/43 127/7/43 39/6/15 31/6/15
f 29/4/13 37/4/13 36/2/12 28/2/12
f 26/3/11 34/3/11 119/8/18 129/8/18
f 30/5/14 38/5/14 37/4/13 29/4/13
f 103/8/2 131/8/2 138/1/2 6/1/2
f 22/6/10 126/6/10 128/7/10 23/7/10
f 26/3/11 145/3/11 147/2/12 28/2/12
f 5/3/4 137/3/4 132/8/1 4/8/1
f 16/8/10 33/8/10 121/3/10 17/3/10
f 27/1/3 146/1/3 133/8/3 25/8/3
f 18/1/10 35/1/10 33/8/10 16/8/10
f 44/2/17 53/2/17 50/3/17 42/3/17
f 41/8/17 134/8/17 49/1/17 43/1/17
f 42/3/17 50/3/17 134/8/17 41/8/17
f 140/4/17 148/4/17 53/2/17 44/2/17
f 141/5/17 54/5/17 148/4/17 140/4/17
f 142/6/17 150/6/17 54/5/17 141/5/17
f 143/7/17 136/7/17 150/6/17 142/6/17
f 8/4/6 45/4/6 139/2/5 7/2/5
f 30/5/14 149/5/14 55/6/15 31/6/15
f 9/5/7 46/5/7 45/4/6 8/4/6
f 31/6/15 55/6/15 135/7/43 130/7/43
f 10/6/8 47/6/8 46/5/7 9/5/7
f 111/7/42 144/7/42 47/6/8 10/6/8
f 129/8/18 51/8/18 145/3/11 26/3/11
f 151/1/44 157/3/47 158/2/48
f 159/4/49 160/5/50 151/1/44
f 151/1/44 158/2/48 159/4/49
f 161/6/51 151/1/44 160/5/50
f 161/6/51 110/7/41 151/1/44
f 110/7/41 97/1/31 151/1/44
f 112/1/36 105/1/36 153/1/45
f 105/1/36 155/8/46 153/1/45
f 151/1/44 153/1/45 155/8/46 157/3/47
f 162/1/10 69/2/10 68/3/10
f 70/4/10 162/1/10 71/5/10
f 162/1/10 70/4/10 69/2/10
f 72/6/10 71/5/10 162/1/10
f 72/6/10 162/1/10 23/7/10
f 23/7/10 162/1/10 113/1/10
f 118/1/10 164/1/10 18/1/10
f 18/1/10 164/1/10 67/8/10
f 162/1/10 68/3/10 67/8/10 164/1/10
f 71/5/10 72/6/10 172/6/10 171/5/10
f 152/1/3 3/1/3 15/1/3 163/1/3
f 76/4/27 77/5/28 186/5/28 93/4/27
f 70/4/10 71/5/10 171/5/10 170/4/10
f 154/1/19 57/1/19 65/1/19 165/1/19
f 61/2/21 60/3/20 178/3/20 179/2/21
f 69/2/10 70/4/10 170/4/10 169/2/10
f 75/2/26 76/4/27 93/4/27 184/2/26
f 12/1/2 58/1/2 66/1/2 24/1/2
f 68/3/10 69/2/10 169/2/10 168/3/10
f 73/8/3 27/1/3 122/1/3 167/8/3
f 78/6/29 77/5/28 83/5/28 84/6/29
f 75/2/26 74/3/25 80/3/25 81/2/26
f 32/7/16 78/6/29 84/6/29 40/7/16
f 76/4/27 75/2/26 81/2/26 82/4/27
f 74/3/25 173/8/30 166/8/30 80/3/25
f 77/5/28 76/4/27 82/4/27 83/5/28
f 156/8/2 6/1/2 138/1/2 174/8/2
f 72/6/10 23/7/10 128/7/10 172/6/10
f 74/3/25 75/2/26 184/2/26 183/3/25
f 60/3/20 59/8/19 175/8/19 178/3/20
f 67/8/10 68/3/10 168/3/10 79/8/10
f 27/1/3 73/8/3 176/8/3 146/1/3
f 18/1/10 67/8/10 79/8/10 35/1/10
f 87/2/17 86/3/17 91/3/17 94/2/17
f 85/8/17 43/1/17 49/1/17 177/8/17
f 86/3/17 85/8/17 177/8/17 91/3/17
f 180/4/17 87/2/17 94/2/17 185/4/17
f 181/5/17 180/4/17 185/4/17 95/5/17
f 182/6/17 181/5/17 95/5/17 187/6/17
f 143/7/17 182/6/17 187/6/17 136/7/17
f 62/4/22 61/2/21 179/2/21 88/4/22
f 77/5/28 78/6/29 96/6/29 186/5/28
f 63/5/23 62/4/22 88/4/22 89/5/23
f 78/6/29 32/7/16 56/7/16 96/6/29
f 64/6/24 63/5/23 89/5/23 90/6/24
f 11/7/9 64/6/24 90/6/24 48/7/9
f 173/8/30 74/3/25 183/3/25 92/8/30
f 98/1/32 283/3/53 285/2/54
f 286/4/55 287/5/56 98/1/32
f 98/1/32 285/2/54 286/4/55
f 288/6/57 98/1/32 287/5/56
f 288/6/57 289/7/58 98/1/32
f 289/7/58 280/1/31 98/1/32
f 291/1/36 284/1/36 100/1/33
f 284/1/36 281/8/52 100/1/33
f 98/1/32 100/1/33 281/8/52 283/3/53
f 114/1/10 202/2/10 200/3/10
f 203/4/10 114/1/10 204/5/10
f 114/1/10 203/4/10 202/2/10
f 205/6/10 204/5/10 114/1/10
f 205/6/10 114/1/10 206/7/10
f 206/7/10 114/1/10 292/1/10
f 293/1/10 116/1/10 201/1/10
f 201/1/10 116/1/10 199/8/10
f 114/1/10 200/3/10 199/8/10 116/1/10
f 204/5/10 205/6/10 301/6/10 300/5/10
f 99/1/3 188/1/3 198/1/3 115/1/3
f 212/4/27 213/5/28 324/5/28 235/4/27
f 203/4/10 204/5/10 300/5/10 299/4/10
f 192/2/21 190/3/20 312/3/20 314/2/21
f 202/2/10 203/4/10 299/4/10 298/2/10
f 211/2/26 212/4/27 235/4/27 322/2/26
f 197/1/2 2/1/2 14/1/2 207/1/2
f 200/3/10 202/2/10 298/2/10 296/3/10
f 208/8/3 210/1/3 297/1/3 295/8/3
f 214/6/29 213/5/28 221/5/28 222/6/29
f 211/2/26 209/3/25 217/3/25 219/2/26
f 305/7/16 214/6/29 222/6/29 302/7/16
f 212/4/27 211/2/26 219/2/26 220/4/27
f 209/3/25 304/8/30 294/8/30 217/3/25
f 213/5/28 212/4/27 220/4/27 221/5/28
f 282/8/2 191/1/2 313/1/2 306/8/2
f 205/6/10 206/7/10 303/7/10 301/6/10
f 209/3/25 211/2/26 322/2/26 320/3/25
f 190/3/20 189/8/19 307/8/19 312/3/20
f 199/8/10 200/3/10 296/3/10 216/8/10
f 210/1/3 208/8/3 308/8/3 321/1/3
f 201/1/10 199/8/10 216/8/10 218/1/10
f 227/2/17 225/3/17 233/3/17 236/2/17
f 224/8/17 226/1/17 232/1/17 309/8/17
f 225/3/17 224/8/17 309/8/17 233/3/17
f 315/4/17 227/2/17 236/2/17 323/4/17
f 316/5/17 315/4/17 323/4/17 237/5/17
f 317/6/17 316/5/17 237/5/17 325/6/17
f 318/7/17 317/6/17 325/6/17 311/7/17
f 193/4/22 192/2/21 314/2/21 228/4/22
f 213/5/28 214/6/29 238/6/29 324/5/28
f 194/5/23 193/4/22 228/4/22 229/5/23
f 214/6/29 305/7/16 310/7/16 238/6/29
f 195/6/24 194/5/23 229/5/23 230/6/24
f 290/7/9 195/6/24 230/6/24 319/7/9
f 304/8/30 209/3/25 320/3/25 234/8/30
f 326/1/59 333/2/63 332/3/62
f 334/4/64 326/1/59 335/5/65
f 326/1/59 334/4/64 333/2/63
f 336/6/66 335/5/65 326/1/59
f 336/6/66 326/1/59 289/7/58
f 289/7/58 326/1/59 280/1/31
f 291/1/36 328/1/60 284/1/36
f 284/1/36 328/1/60 330/8/61
f 326/1/59 332/3/62 330/8/61 328/1/60
f 337/1/10 251/3/10 252/2/10
f 253/4/10 254/5/10 337/1/10
f 337/1/10 252/2/10 253/4/10
f 255/6/10 337/1/10 254/5/10
f 255/6/10 206/7/10 337/1/10
f 206/7/10 292/1/10 337/1/10
f 293/1/10 201/1/10 339/1/10
f 201/1/10 250/8/10 339/1/10
f 337/1/10 339/1/10 250/8/10 251/3/10
f 254/5/10 346/5/10 347/6/10 255/6/10
f 327/1/3 338/1/3 198/1/3 188/1/3
f 259/4/13 276/4/13 361/5/14 260/5/14
f 253/4/10 345/4/10 346/5/10 254/5/10
f 329/1/1 340/1/1 248/1/1 240/1/1
f 244/2/5 354/2/5 353/3/4 243/3/4
f 252/2/10 344/2/10 345/4/10 253/4/10
f 258/2/12 359/2/12 276/4/13 259/4/13
f 197/1/2 207/1/2 249/1/2 241/1/2
f 251/3/10 343/3/10 344/2/10 252/2/10
f 256/8/3 342/8/3 297/1/3 210/1/3
f 261/6/15 267/6/15 266/5/14 260/5/14
f 258/2/12 264/2/12 263/3/11 257/3/11
f 215/7/43 223/7/43 267/6/15 261/6/15
f 259/4/13 265/4/13 264/2/12 258/2/12
f 257/3/11 263/3/11 341/8/18 348/8/18
f 260/5/14 266/5/14 265/4/13 259/4/13
f 331/8/2 349/8/2 313/1/2 191/1/2
f 255/6/10 347/6/10 303/7/10 206/7/10
f 257/3/11 358/3/11 359/2/12 258/2/12
f 243/3/4 353/3/4 350/8/1 242/8/1
f 250/8/10 262/8/10 343/3/10 251/3/10
f 210/1/3 321/1/3 351/8/3 256/8/3
f 201/1/10 218/1/10 262/8/10 250/8/10
f 270/2/17 277/2/17 274/3/17 269/3/17
f 268/8/17 352/8/17 232/1/17 226/1/17
f 269/3/17 274/3/17 352/8/17 268/8/17
f 355/4/17 360/4/17 277/2/17 270/2/17
f 356/5/17 278/5/17 360/4/17 355/4/17
f 357/6/17 362/6/17 278/5/17 356/5/17
f 318/7/17 311/7/17 362/6/17 357/6/17
f 245/4/6 271/4/6 354/2/5 244/2/5
f 260/5/14 361/5/14 279/6/15 261/6/15
f 246/5/7 272/5/7 271/4/6 245/4/6
f 261/6/15 279/6/15 239/7/43 215/7/43
f 247/6/8 273/6/8 272/5/7 246/5/7
f 196/7/42 231/7/42 273/6/8 247/6/8
f 348/8/18 275/8/18 358/3/11 257/3/11
